<svg width="40" height="40" viewBox="0 0 40 40" fill="none" xmlns="http://www.w3.org/2000/svg"><g clip-path="url(#clip0_2002_109)"><path d="M4.25353 16.9928H0.00927734V39.9876H4.25144V23.1125H4.25353V16.9928Z" fill="#C31F00"/><path d="M4.59961 23.1125H10.6895V39.9876H14.9167V16.9928H4.59961V23.1125Z" fill="#C31F00"/><path d="M35.4383 16.9928H34.41L30.9444 29.9118L27.5388 16.9928H21.7134V39.9876H25.8509V25.6467L29.7346 39.9876H31.9004L35.4383 26.9743V16.9928Z" fill="#C31F00"/><path d="M35.7969 16.9928V25.655L35.799 25.6467V39.9876H39.9963V16.9928H35.7969Z" fill="#C31F00"/><path d="M20.4344 6.99695H16.1924V22.9754H20.4344V6.99695Z" fill="#313131"/><path d="M11.396 0V6.27438H16.1907V6.27486H20.4329V6.27438H25.2276V0H11.396Z" fill="#313131"/></g><defs><clipPath id="clip0_2002_109"><rect width="40" height="40" fill="white"/></clipPath></defs></svg>