<svg width="2362" height="442" viewBox="0 0 2362 442" fill="none" xmlns="http://www.w3.org/2000/svg">
<path d="M127.002 0H4V322.067H126.941V85.7121H127.002V0Z" fill="#C31F00"/>
<path d="M137.03 85.7121H313.519V322.067H436.027V0H137.03V85.7121Z" fill="#C31F00"/>
<path d="M1264.76 0.433594H1234.96L1134.52 181.378L1035.82 0.433594H867V322.5H986.907V121.641L1099.46 322.5H1162.23L1264.76 140.235V0.433594Z" fill="#C31F00"/>
<path d="M1275.15 0.433594V121.756L1275.21 121.641V322.5H1396.85V0.433594H1275.15Z" fill="#C31F00"/>
<path d="M712.897 98.7134H589.956V322.507H712.897V98.7134Z" fill="#C31F00"/>
<path d="M451 0.433594V88.3125H589.955V88.3192H712.896V88.3125H851.852V0.433594H451Z" fill="#C31F00"/>
<mask id="path-7-outside-1_8_147" maskUnits="userSpaceOnUse" x="1308" y="184" width="1047" height="170" fill="black">
<rect fill="white" x="1308" y="184" width="1047" height="170"/>
<path d="M1365.71 321C1348.96 321 1336.5 316.959 1328.33 308.876C1320.25 300.709 1316.21 288.248 1316.21 271.493V242.193C1316.21 225.353 1320.21 212.892 1328.2 204.81C1336.29 196.727 1348.79 192.77 1365.71 192.938H1386.43C1398.97 192.938 1408.82 195.043 1415.98 199.253C1423.22 203.462 1427.85 209.945 1429.87 218.702C1430.63 222.238 1430 224.974 1427.98 226.911C1426.04 228.847 1423.22 229.816 1419.52 229.816C1416.23 229.816 1413.83 228.974 1412.32 227.29C1410.8 225.606 1409.41 223.248 1408.15 220.217C1406.89 217.944 1404.57 216.386 1401.2 215.545C1397.84 214.618 1392.91 214.155 1386.43 214.155H1365.71C1354.85 213.987 1347.4 215.881 1343.36 219.839C1339.4 223.712 1337.42 231.163 1337.42 242.193V271.493C1337.42 282.438 1339.4 289.89 1343.36 293.847C1347.4 297.804 1354.85 299.783 1365.71 299.783H1386.43C1392.91 299.783 1397.84 299.362 1401.2 298.52C1404.57 297.594 1406.89 295.994 1408.15 293.72C1409.41 290.521 1410.8 288.121 1412.32 286.522C1413.92 284.922 1416.4 284.122 1419.77 284.122C1423.3 284.122 1426.04 285.09 1427.98 287.027C1430 288.963 1430.63 291.7 1429.87 295.236C1427.85 303.908 1423.22 310.391 1415.98 314.685C1408.82 318.895 1398.97 321 1386.43 321H1365.71ZM1511.35 324.284C1503.61 324.284 1499.73 320.495 1499.73 312.917V224.259H1463.36C1455.11 224.259 1450.98 220.723 1450.98 213.65C1450.98 206.578 1455.11 203.041 1463.36 203.041H1559.6C1567.85 203.041 1571.97 206.578 1571.97 213.65C1571.97 220.723 1567.85 224.259 1559.6 224.259H1523.48V312.917C1523.48 316.369 1522.38 319.106 1520.19 321.126C1518 323.231 1515.06 324.284 1511.35 324.284ZM1654.29 322.516C1638.13 322.516 1625.25 321.084 1615.65 318.222C1606.13 315.275 1599.27 310.433 1595.06 303.698C1590.94 296.878 1588.87 287.658 1588.87 276.039V249.518C1588.87 237.899 1590.94 228.721 1595.06 221.986C1599.27 215.166 1606.13 210.324 1615.65 207.462C1625.25 204.515 1638.13 203.041 1654.29 203.041H1661.62C1677.78 203.041 1690.62 204.515 1700.14 207.462C1709.65 210.409 1716.47 215.292 1720.6 222.112C1724.72 228.847 1726.79 237.983 1726.79 249.518V276.039C1726.79 287.574 1724.72 296.752 1720.6 303.571C1716.47 310.307 1709.65 315.148 1700.14 318.095C1690.62 321.042 1677.78 322.516 1661.62 322.516H1654.29ZM1654.29 301.298H1661.62C1674.25 301.298 1683.68 300.709 1689.91 299.53C1696.22 298.267 1700.39 295.783 1702.41 292.079C1704.52 288.29 1705.57 282.691 1705.57 275.282V250.275C1705.57 242.782 1704.52 237.183 1702.41 233.478C1700.39 229.774 1696.22 227.332 1689.91 226.153C1683.68 224.89 1674.25 224.259 1661.62 224.259H1654.29C1641.58 224.259 1632.07 224.89 1625.75 226.153C1619.44 227.332 1615.23 229.774 1613.12 233.478C1611.1 237.183 1610.09 242.782 1610.09 250.275V275.282C1610.09 282.691 1611.1 288.29 1613.12 292.079C1615.23 295.783 1619.44 298.267 1625.75 299.53C1632.07 300.709 1641.58 301.298 1654.29 301.298ZM1866.78 324.284C1859.71 324.284 1856.17 320.158 1856.17 311.907V224.259H1806.16C1800.52 224.259 1796.77 224.932 1794.92 226.28C1793.15 227.627 1792.27 230.405 1792.27 234.615V288.164C1792.27 296.246 1791.18 302.856 1788.99 307.992C1786.8 313.043 1783.39 316.79 1778.76 319.232C1774.13 321.589 1768.11 322.768 1760.7 322.768C1756.32 322.768 1752.74 321.968 1749.96 320.369C1747.18 318.769 1745.79 315.948 1745.79 311.907C1745.79 304.834 1750.26 301.298 1759.18 301.298C1763.73 301.298 1766.84 300.582 1768.53 299.151C1770.21 297.72 1771.05 295.068 1771.05 291.195V237.393C1771.05 228.469 1772.02 221.522 1773.96 216.555C1775.89 211.587 1779.26 208.093 1784.06 206.072C1788.94 204.052 1795.64 203.041 1804.14 203.041H1877.39V311.654C1877.39 320.074 1873.86 324.284 1866.78 324.284ZM2030.04 324.284C2022.97 324.284 2019.43 319.905 2019.43 311.149V233.099L1932.67 322.516H1912.84V213.65C1912.84 205.399 1916.37 201.273 1923.45 201.273C1930.52 201.273 1934.05 205.651 1934.05 214.408V293.468L2021.58 203.041H2040.65V311.907C2040.65 320.158 2037.11 324.284 2030.04 324.284ZM2193.09 345.754C2186.01 345.754 2182.48 341.46 2182.48 332.872V322.516H2075.89V213.398C2075.89 205.315 2079.42 201.273 2086.49 201.273C2093.57 201.273 2097.1 205.315 2097.1 213.398V301.298H2167.83V213.398C2167.83 205.315 2171.36 201.273 2178.44 201.273C2185.51 201.273 2189.04 205.399 2189.04 213.65V312.412L2181.21 302.814H2187.02C2198.14 303.066 2203.69 309.128 2203.69 321V332.872C2203.69 341.46 2200.16 345.754 2193.09 345.754ZM2334.14 324.284C2332.04 324.284 2330.31 323.652 2328.96 322.389C2327.62 321.21 2326.61 318.643 2325.93 314.685C2325.34 310.728 2325.05 304.666 2325.05 296.499L2327.83 303.066C2322.52 310.391 2315.87 315.485 2307.87 318.348C2299.96 321.126 2290.61 322.516 2279.84 322.516H2256.35C2247.17 322.516 2239.67 319.484 2233.87 313.422C2228.14 307.276 2225.28 298.014 2225.28 285.638C2225.28 277.892 2226.54 271.366 2229.07 266.062C2231.59 260.674 2235.51 256.337 2240.81 253.054C2246.12 249.686 2252.89 247.244 2261.14 245.729C2269.4 244.213 2279.25 243.455 2290.7 243.455H2333.38L2323.79 252.043V233.352C2323.79 229.647 2323.15 227.206 2321.89 226.027C2320.71 224.848 2318.06 224.259 2313.94 224.259H2278.32C2269.82 224.259 2263.29 224.469 2258.74 224.89C2254.28 225.311 2251.17 226.153 2249.4 227.416C2247.63 228.595 2246.66 230.321 2246.49 232.594C2246.16 236.972 2245.36 240.214 2244.09 242.319C2242.83 244.424 2240.1 245.476 2235.89 245.476C2228.81 245.476 2225.28 240.93 2225.28 231.836C2225.28 221.817 2229.44 214.534 2237.78 209.988C2246.12 205.357 2259.04 203.041 2276.55 203.041H2315.7C2326.48 203.041 2334.06 205.609 2338.44 210.745C2342.81 215.881 2345 224.764 2345 237.393V312.159C2345 320.242 2341.38 324.284 2334.14 324.284ZM2257.1 302.308H2279.84C2295.75 302.308 2307.03 299.109 2313.68 292.71C2320.42 286.227 2323.79 276.039 2323.79 262.147L2325.3 263.663H2290.7C2279.58 263.663 2270.78 264.21 2264.3 265.304C2257.9 266.315 2253.31 268.335 2250.54 271.366C2247.84 274.398 2246.49 278.902 2246.49 284.88C2246.49 290.268 2247.42 294.52 2249.27 297.636C2251.21 300.751 2253.82 302.308 2257.1 302.308Z"/>
</mask>
<path d="M1365.71 321C1348.96 321 1336.5 316.959 1328.33 308.876C1320.25 300.709 1316.21 288.248 1316.21 271.493V242.193C1316.21 225.353 1320.21 212.892 1328.2 204.81C1336.29 196.727 1348.79 192.77 1365.71 192.938H1386.43C1398.97 192.938 1408.82 195.043 1415.98 199.253C1423.22 203.462 1427.85 209.945 1429.87 218.702C1430.63 222.238 1430 224.974 1427.98 226.911C1426.04 228.847 1423.22 229.816 1419.52 229.816C1416.23 229.816 1413.83 228.974 1412.32 227.29C1410.8 225.606 1409.41 223.248 1408.15 220.217C1406.89 217.944 1404.57 216.386 1401.2 215.545C1397.84 214.618 1392.91 214.155 1386.43 214.155H1365.71C1354.85 213.987 1347.4 215.881 1343.36 219.839C1339.4 223.712 1337.42 231.163 1337.42 242.193V271.493C1337.42 282.438 1339.4 289.89 1343.36 293.847C1347.4 297.804 1354.85 299.783 1365.71 299.783H1386.43C1392.91 299.783 1397.84 299.362 1401.2 298.52C1404.57 297.594 1406.89 295.994 1408.15 293.72C1409.41 290.521 1410.8 288.121 1412.32 286.522C1413.92 284.922 1416.4 284.122 1419.77 284.122C1423.3 284.122 1426.04 285.09 1427.98 287.027C1430 288.963 1430.63 291.7 1429.87 295.236C1427.85 303.908 1423.22 310.391 1415.98 314.685C1408.82 318.895 1398.97 321 1386.43 321H1365.71ZM1511.35 324.284C1503.61 324.284 1499.73 320.495 1499.73 312.917V224.259H1463.36C1455.11 224.259 1450.98 220.723 1450.98 213.65C1450.98 206.578 1455.11 203.041 1463.36 203.041H1559.6C1567.85 203.041 1571.97 206.578 1571.97 213.65C1571.97 220.723 1567.85 224.259 1559.6 224.259H1523.48V312.917C1523.48 316.369 1522.38 319.106 1520.19 321.126C1518 323.231 1515.06 324.284 1511.35 324.284ZM1654.29 322.516C1638.13 322.516 1625.25 321.084 1615.65 318.222C1606.13 315.275 1599.27 310.433 1595.06 303.698C1590.94 296.878 1588.87 287.658 1588.87 276.039V249.518C1588.87 237.899 1590.94 228.721 1595.06 221.986C1599.27 215.166 1606.13 210.324 1615.65 207.462C1625.25 204.515 1638.13 203.041 1654.29 203.041H1661.62C1677.78 203.041 1690.62 204.515 1700.14 207.462C1709.65 210.409 1716.47 215.292 1720.6 222.112C1724.72 228.847 1726.79 237.983 1726.79 249.518V276.039C1726.79 287.574 1724.72 296.752 1720.6 303.571C1716.47 310.307 1709.65 315.148 1700.14 318.095C1690.62 321.042 1677.78 322.516 1661.62 322.516H1654.29ZM1654.29 301.298H1661.62C1674.25 301.298 1683.68 300.709 1689.91 299.53C1696.22 298.267 1700.39 295.783 1702.41 292.079C1704.52 288.29 1705.57 282.691 1705.57 275.282V250.275C1705.57 242.782 1704.52 237.183 1702.41 233.478C1700.39 229.774 1696.22 227.332 1689.91 226.153C1683.68 224.89 1674.25 224.259 1661.62 224.259H1654.29C1641.58 224.259 1632.07 224.89 1625.75 226.153C1619.44 227.332 1615.23 229.774 1613.12 233.478C1611.1 237.183 1610.09 242.782 1610.09 250.275V275.282C1610.09 282.691 1611.1 288.29 1613.12 292.079C1615.23 295.783 1619.44 298.267 1625.75 299.53C1632.07 300.709 1641.58 301.298 1654.29 301.298ZM1866.78 324.284C1859.71 324.284 1856.17 320.158 1856.17 311.907V224.259H1806.16C1800.52 224.259 1796.77 224.932 1794.92 226.28C1793.15 227.627 1792.27 230.405 1792.27 234.615V288.164C1792.27 296.246 1791.18 302.856 1788.99 307.992C1786.8 313.043 1783.39 316.79 1778.76 319.232C1774.13 321.589 1768.11 322.768 1760.7 322.768C1756.32 322.768 1752.74 321.968 1749.96 320.369C1747.18 318.769 1745.79 315.948 1745.79 311.907C1745.79 304.834 1750.26 301.298 1759.18 301.298C1763.73 301.298 1766.84 300.582 1768.53 299.151C1770.21 297.72 1771.05 295.068 1771.05 291.195V237.393C1771.05 228.469 1772.02 221.522 1773.96 216.555C1775.89 211.587 1779.26 208.093 1784.06 206.072C1788.94 204.052 1795.64 203.041 1804.14 203.041H1877.39V311.654C1877.39 320.074 1873.86 324.284 1866.78 324.284ZM2030.04 324.284C2022.97 324.284 2019.43 319.905 2019.43 311.149V233.099L1932.67 322.516H1912.84V213.65C1912.84 205.399 1916.37 201.273 1923.45 201.273C1930.52 201.273 1934.05 205.651 1934.05 214.408V293.468L2021.58 203.041H2040.65V311.907C2040.65 320.158 2037.11 324.284 2030.04 324.284ZM2193.09 345.754C2186.01 345.754 2182.48 341.46 2182.48 332.872V322.516H2075.89V213.398C2075.89 205.315 2079.42 201.273 2086.49 201.273C2093.57 201.273 2097.1 205.315 2097.1 213.398V301.298H2167.83V213.398C2167.83 205.315 2171.36 201.273 2178.44 201.273C2185.51 201.273 2189.04 205.399 2189.04 213.65V312.412L2181.21 302.814H2187.02C2198.14 303.066 2203.69 309.128 2203.69 321V332.872C2203.69 341.46 2200.16 345.754 2193.09 345.754ZM2334.14 324.284C2332.04 324.284 2330.31 323.652 2328.96 322.389C2327.62 321.21 2326.61 318.643 2325.93 314.685C2325.34 310.728 2325.05 304.666 2325.05 296.499L2327.83 303.066C2322.52 310.391 2315.87 315.485 2307.87 318.348C2299.96 321.126 2290.61 322.516 2279.84 322.516H2256.35C2247.17 322.516 2239.67 319.484 2233.87 313.422C2228.14 307.276 2225.28 298.014 2225.28 285.638C2225.28 277.892 2226.54 271.366 2229.07 266.062C2231.59 260.674 2235.51 256.337 2240.81 253.054C2246.12 249.686 2252.89 247.244 2261.14 245.729C2269.4 244.213 2279.25 243.455 2290.7 243.455H2333.38L2323.79 252.043V233.352C2323.79 229.647 2323.15 227.206 2321.89 226.027C2320.71 224.848 2318.06 224.259 2313.94 224.259H2278.32C2269.82 224.259 2263.29 224.469 2258.74 224.89C2254.28 225.311 2251.17 226.153 2249.4 227.416C2247.63 228.595 2246.66 230.321 2246.49 232.594C2246.16 236.972 2245.36 240.214 2244.09 242.319C2242.83 244.424 2240.1 245.476 2235.89 245.476C2228.81 245.476 2225.28 240.93 2225.28 231.836C2225.28 221.817 2229.44 214.534 2237.78 209.988C2246.12 205.357 2259.04 203.041 2276.55 203.041H2315.7C2326.48 203.041 2334.06 205.609 2338.44 210.745C2342.81 215.881 2345 224.764 2345 237.393V312.159C2345 320.242 2341.38 324.284 2334.14 324.284ZM2257.1 302.308H2279.84C2295.75 302.308 2307.03 299.109 2313.68 292.71C2320.42 286.227 2323.79 276.039 2323.79 262.147L2325.3 263.663H2290.7C2279.58 263.663 2270.78 264.21 2264.3 265.304C2257.9 266.315 2253.31 268.335 2250.54 271.366C2247.84 274.398 2246.49 278.902 2246.49 284.88C2246.49 290.268 2247.42 294.52 2249.27 297.636C2251.21 300.751 2253.82 302.308 2257.1 302.308Z" fill="white"/>
<path d="M1328.33 308.876L1322.65 314.503L1322.67 314.533L1322.7 314.562L1328.33 308.876ZM1328.2 204.81L1322.55 199.153L1322.53 199.167L1322.52 199.182L1328.2 204.81ZM1365.71 192.938L1365.63 200.937L1365.67 200.938H1365.71V192.938ZM1415.98 199.253L1411.92 206.148L1411.94 206.158L1411.96 206.169L1415.98 199.253ZM1429.87 218.702L1437.69 217.026L1437.68 216.964L1437.67 216.903L1429.87 218.702ZM1427.98 226.911L1422.44 221.135L1422.38 221.194L1422.32 221.254L1427.98 226.911ZM1408.15 220.217L1415.53 217.14L1415.36 216.725L1415.14 216.332L1408.15 220.217ZM1401.2 215.545L1399.08 223.258L1399.17 223.283L1399.26 223.306L1401.2 215.545ZM1365.71 214.155L1365.59 222.154L1365.65 222.155H1365.71V214.155ZM1343.36 219.839L1348.96 225.556L1348.96 225.555L1343.36 219.839ZM1343.36 293.847L1337.7 299.504L1337.73 299.533L1337.76 299.563L1343.36 293.847ZM1401.2 298.52L1403.14 306.281L1403.23 306.258L1403.32 306.233L1401.2 298.52ZM1408.15 293.72L1415.14 297.606L1415.4 297.146L1415.59 296.658L1408.15 293.72ZM1412.32 286.522L1406.66 280.865L1406.58 280.941L1406.51 281.02L1412.32 286.522ZM1427.98 287.027L1422.32 292.684L1422.38 292.744L1422.44 292.803L1427.98 287.027ZM1429.87 295.236L1437.66 297.051L1437.68 296.982L1437.69 296.912L1429.87 295.236ZM1415.98 314.685L1420.04 321.581L1420.05 321.574L1420.06 321.566L1415.98 314.685ZM1365.71 313C1350.1 313 1340.06 309.228 1333.96 303.19L1322.7 314.562C1332.94 324.689 1347.82 329 1365.71 329V313ZM1334.02 303.248C1327.98 297.147 1324.21 287.104 1324.21 271.493H1308.21C1308.21 289.392 1312.52 304.27 1322.65 314.503L1334.02 303.248ZM1324.21 271.493V242.193H1308.21V271.493H1324.21ZM1324.21 242.193C1324.21 226.456 1327.96 216.434 1333.89 210.437L1322.52 199.182C1312.46 209.351 1308.21 224.251 1308.21 242.193H1324.21ZM1333.86 210.466C1339.83 204.503 1349.83 200.78 1365.63 200.937L1365.79 184.938C1347.75 184.759 1332.75 188.951 1322.55 199.153L1333.86 210.466ZM1365.71 200.938H1386.43V184.938H1365.71V200.938ZM1386.43 200.938C1398.22 200.938 1406.47 202.94 1411.92 206.148L1420.04 192.357C1411.18 187.146 1399.72 184.938 1386.43 184.938V200.938ZM1411.96 206.169C1417.14 209.18 1420.51 213.723 1422.08 220.501L1437.67 216.903C1435.19 206.168 1429.3 197.745 1420 192.337L1411.96 206.169ZM1422.05 220.378C1422.25 221.318 1422.16 221.661 1422.17 221.607C1422.18 221.572 1422.21 221.478 1422.27 221.36C1422.34 221.241 1422.41 221.165 1422.44 221.135L1433.51 232.687C1438.12 228.27 1438.84 222.373 1437.69 217.026L1422.05 220.378ZM1422.32 221.254C1422.29 221.287 1422.17 221.399 1421.81 221.523C1421.41 221.66 1420.69 221.816 1419.52 221.816V237.816C1424.57 237.816 1429.73 236.473 1433.63 232.568L1422.32 221.254ZM1419.52 221.816C1418.53 221.816 1418.04 221.685 1417.9 221.635C1417.84 221.614 1417.87 221.618 1417.96 221.673C1418.04 221.73 1418.16 221.818 1418.26 221.938L1406.37 232.642C1409.98 236.653 1415 237.816 1419.52 237.816V221.816ZM1418.26 221.938C1417.56 221.154 1416.59 219.679 1415.53 217.14L1400.76 223.294C1402.23 226.818 1404.04 230.057 1406.37 232.642L1418.26 221.938ZM1415.14 216.332C1412.48 211.537 1407.91 208.975 1403.14 207.783L1399.26 223.306C1400.26 223.554 1400.77 223.83 1401 223.982C1401.11 224.054 1401.15 224.1 1401.16 224.107C1401.16 224.113 1401.16 224.113 1401.16 224.11C1401.16 224.108 1401.16 224.107 1401.16 224.105C1401.16 224.104 1401.16 224.104 1401.16 224.103C1401.16 224.103 1401.16 224.103 1401.16 224.103L1415.14 216.332ZM1403.32 207.831C1398.91 206.617 1393.13 206.155 1386.43 206.155V222.155C1392.69 222.155 1396.76 222.62 1399.08 223.258L1403.32 207.831ZM1386.43 206.155H1365.71V222.155H1386.43V206.155ZM1365.84 206.156C1354.58 205.982 1344.24 207.783 1337.76 214.122L1348.96 225.555C1350.57 223.98 1355.12 221.992 1365.59 222.154L1365.84 206.156ZM1337.76 214.121C1331.32 220.432 1329.42 230.873 1329.42 242.193H1345.42C1345.42 231.453 1347.49 226.991 1348.96 225.556L1337.76 214.121ZM1329.42 242.193V271.493H1345.42V242.193H1329.42ZM1329.42 271.493C1329.42 282.78 1331.34 293.137 1337.7 299.504L1349.02 288.19C1347.47 286.642 1345.42 282.096 1345.42 271.493H1329.42ZM1337.76 299.563C1344.18 305.851 1354.46 307.783 1365.71 307.783V291.783C1355.25 291.783 1350.62 289.757 1348.96 288.131L1337.76 299.563ZM1365.71 307.783H1386.43V291.783H1365.71V307.783ZM1386.43 307.783C1393.1 307.783 1398.81 307.364 1403.14 306.281L1399.26 290.759C1396.86 291.36 1392.72 291.783 1386.43 291.783V307.783ZM1403.32 306.233C1408.03 304.939 1412.52 302.333 1415.14 297.606L1401.16 289.835C1401.15 289.839 1401.15 289.848 1401.13 289.87C1401.11 289.894 1401.05 289.955 1400.92 290.043C1400.65 290.226 1400.1 290.526 1399.08 290.806L1403.32 306.233ZM1415.59 296.658C1416.67 293.935 1417.59 292.583 1418.12 292.024L1406.51 281.02C1404.01 283.66 1402.16 287.107 1400.71 290.783L1415.59 296.658ZM1417.97 292.179C1417.75 292.405 1417.61 292.408 1417.83 292.337C1418.09 292.254 1418.69 292.122 1419.77 292.122V276.122C1415.31 276.122 1410.36 277.168 1406.66 280.865L1417.97 292.179ZM1419.77 292.122C1421.83 292.122 1422.29 292.65 1422.32 292.684L1433.63 281.37C1429.8 277.531 1424.78 276.122 1419.77 276.122V292.122ZM1422.44 292.803C1422.41 292.773 1422.34 292.697 1422.27 292.578C1422.21 292.46 1422.18 292.365 1422.17 292.33C1422.16 292.277 1422.25 292.62 1422.05 293.56L1437.69 296.912C1438.84 291.564 1438.12 285.668 1433.51 281.251L1422.44 292.803ZM1422.08 293.421C1420.52 300.106 1417.15 304.692 1411.9 307.804L1420.06 321.566C1429.29 316.09 1435.18 307.71 1437.66 297.051L1422.08 293.421ZM1411.92 307.79C1406.47 310.998 1398.22 313 1386.43 313V329C1399.72 329 1411.18 326.792 1420.04 321.581L1411.92 307.79ZM1386.43 313H1365.71V329H1386.43V313ZM1499.73 224.259H1507.73V216.259H1499.73V224.259ZM1523.48 224.259V216.259H1515.48V224.259H1523.48ZM1520.19 321.126L1514.77 315.248L1514.71 315.303L1514.65 315.36L1520.19 321.126ZM1511.35 316.284C1510.04 316.284 1509.22 316.121 1508.75 315.967C1508.52 315.893 1508.39 315.825 1508.32 315.786C1508.26 315.748 1508.24 315.726 1508.23 315.723C1508.23 315.721 1508.22 315.707 1508.19 315.661C1508.16 315.612 1508.1 315.505 1508.03 315.31C1507.89 314.905 1507.73 314.153 1507.73 312.917H1491.73C1491.73 317.984 1493.04 323.244 1497.04 327.161C1501.02 331.046 1506.29 332.284 1511.35 332.284V316.284ZM1507.73 312.917V224.259H1491.73V312.917H1507.73ZM1499.73 216.259H1463.36V232.259H1499.73V216.259ZM1463.36 216.259C1460.19 216.259 1459.31 215.554 1459.28 215.533C1459.28 215.527 1459.28 215.525 1459.28 215.526C1459.28 215.528 1459.28 215.529 1459.28 215.527C1459.28 215.527 1459.25 215.491 1459.21 215.392C1459.13 215.184 1458.98 214.659 1458.98 213.65H1442.98C1442.98 218.769 1444.54 223.963 1448.87 227.681C1452.97 231.196 1458.28 232.259 1463.36 232.259V216.259ZM1458.98 213.65C1458.98 212.642 1459.13 212.116 1459.21 211.908C1459.25 211.81 1459.28 211.773 1459.28 211.773C1459.28 211.771 1459.28 211.772 1459.28 211.774C1459.28 211.776 1459.28 211.774 1459.28 211.768C1459.31 211.747 1460.19 211.041 1463.36 211.041V195.041C1458.28 195.041 1452.97 196.104 1448.87 199.62C1444.54 203.337 1442.98 208.531 1442.98 213.65H1458.98ZM1463.36 211.041H1559.6V195.041H1463.36V211.041ZM1559.6 211.041C1562.77 211.041 1563.65 211.747 1563.67 211.768C1563.68 211.774 1563.68 211.776 1563.68 211.774C1563.68 211.772 1563.68 211.771 1563.68 211.773C1563.68 211.773 1563.71 211.81 1563.74 211.908C1563.83 212.116 1563.97 212.642 1563.97 213.65H1579.97C1579.97 208.531 1578.42 203.337 1574.09 199.62C1569.99 196.104 1564.68 195.041 1559.6 195.041V211.041ZM1563.97 213.65C1563.97 214.659 1563.83 215.184 1563.74 215.392C1563.71 215.491 1563.68 215.527 1563.68 215.527C1563.68 215.529 1563.68 215.528 1563.68 215.526C1563.68 215.525 1563.68 215.527 1563.67 215.533C1563.65 215.554 1562.77 216.259 1559.6 216.259V232.259C1564.68 232.259 1569.99 231.196 1574.09 227.681C1578.42 223.963 1579.97 218.769 1579.97 213.65H1563.97ZM1559.6 216.259H1523.48V232.259H1559.6V216.259ZM1515.48 224.259V312.917H1531.48V224.259H1515.48ZM1515.48 312.917C1515.48 314.525 1515.05 314.986 1514.77 315.248L1525.62 327.005C1529.71 323.225 1531.48 318.214 1531.48 312.917H1515.48ZM1514.65 315.36C1514.26 315.73 1513.47 316.284 1511.35 316.284V332.284C1516.64 332.284 1521.74 330.733 1525.74 326.893L1514.65 315.36ZM1615.65 318.222L1613.28 325.863L1613.32 325.876L1613.36 325.888L1615.65 318.222ZM1595.06 303.698L1588.22 307.839L1588.25 307.888L1588.28 307.938L1595.06 303.698ZM1595.06 221.986L1588.25 217.783L1588.25 217.795L1588.24 217.807L1595.06 221.986ZM1615.65 207.462L1617.95 215.122L1617.97 215.116L1618 215.109L1615.65 207.462ZM1700.14 207.462L1702.51 199.82L1702.51 199.82L1700.14 207.462ZM1720.6 222.112L1713.75 226.253L1713.76 226.271L1713.78 226.29L1720.6 222.112ZM1720.6 303.571L1727.42 307.75L1727.43 307.731L1727.44 307.712L1720.6 303.571ZM1700.14 318.095L1697.77 310.453L1700.14 318.095ZM1689.91 299.53L1691.4 307.391L1691.44 307.383L1691.48 307.375L1689.91 299.53ZM1702.41 292.079L1695.42 288.194L1695.4 288.221L1695.39 288.248L1702.41 292.079ZM1702.41 233.478L1695.39 237.309L1695.42 237.37L1695.46 237.43L1702.41 233.478ZM1689.91 226.153L1688.32 233.994L1688.38 234.006L1688.44 234.017L1689.91 226.153ZM1625.75 226.153L1627.22 234.017L1627.27 234.008L1627.32 233.998L1625.75 226.153ZM1613.12 233.478L1606.17 229.526L1606.13 229.587L1606.1 229.647L1613.12 233.478ZM1613.12 292.079L1606.06 295.843L1606.11 295.938L1606.17 296.031L1613.12 292.079ZM1625.75 299.53L1624.18 307.375L1624.23 307.385L1624.28 307.394L1625.75 299.53ZM1654.29 314.516C1638.49 314.516 1626.48 313.103 1617.93 310.555L1613.36 325.888C1624.01 329.065 1637.77 330.516 1654.29 330.516V314.516ZM1618.02 310.58C1609.85 308.052 1604.8 304.185 1601.85 299.458L1588.28 307.938C1593.74 316.681 1602.41 322.498 1613.28 325.863L1618.02 310.58ZM1601.91 299.557C1598.81 294.432 1596.87 286.827 1596.87 276.039H1580.87C1580.87 288.49 1583.07 299.324 1588.22 307.839L1601.91 299.557ZM1596.87 276.039V249.518H1580.87V276.039H1596.87ZM1596.87 249.518C1596.87 238.722 1598.81 231.183 1601.88 226.164L1588.24 217.807C1583.06 226.259 1580.87 237.075 1580.87 249.518H1596.87ZM1601.87 226.188C1604.82 221.405 1609.85 217.562 1617.95 215.122L1613.34 199.801C1602.42 203.087 1593.72 208.926 1588.25 217.783L1601.87 226.188ZM1618 215.109C1626.51 212.494 1638.5 211.041 1654.29 211.041V195.041C1637.75 195.041 1623.98 196.536 1613.3 199.814L1618 215.109ZM1654.29 211.041H1661.62V195.041H1654.29V211.041ZM1661.62 211.041C1677.42 211.041 1689.35 212.495 1697.77 215.104L1702.51 199.82C1691.9 196.535 1678.15 195.041 1661.62 195.041V211.041ZM1697.77 215.104C1705.9 217.621 1710.88 221.497 1713.75 226.253L1727.44 217.971C1722.07 209.087 1713.41 203.196 1702.51 199.82L1697.77 215.104ZM1713.78 226.29C1716.86 231.317 1718.79 238.819 1718.79 249.518H1734.79C1734.79 237.146 1732.59 226.378 1727.42 217.933L1713.78 226.29ZM1718.79 249.518V276.039H1734.79V249.518H1718.79ZM1718.79 276.039C1718.79 286.73 1716.86 294.298 1713.75 299.431L1727.44 307.712C1732.59 299.205 1734.79 288.419 1734.79 276.039H1718.79ZM1713.78 299.393C1710.91 304.073 1705.93 307.927 1697.77 310.453L1702.51 325.737C1713.38 322.37 1722.04 316.541 1727.42 307.75L1713.78 299.393ZM1697.77 310.453C1689.35 313.062 1677.42 314.516 1661.62 314.516V330.516C1678.15 330.516 1691.9 329.022 1702.51 325.737L1697.77 310.453ZM1661.62 314.516H1654.29V330.516H1661.62V314.516ZM1654.29 309.298H1661.62V293.298H1654.29V309.298ZM1661.62 309.298C1674.36 309.298 1684.4 308.714 1691.4 307.391L1688.42 291.669C1682.95 292.704 1674.14 293.298 1661.62 293.298V309.298ZM1691.48 307.375C1698.88 305.894 1705.79 302.59 1709.44 295.909L1695.39 288.248C1694.99 288.976 1693.57 290.64 1688.34 291.685L1691.48 307.375ZM1709.41 295.964C1712.49 290.42 1713.57 283.207 1713.57 275.282H1697.57C1697.57 282.175 1696.55 286.16 1695.42 288.194L1709.41 295.964ZM1713.57 275.282V250.275H1697.57V275.282H1713.57ZM1713.57 250.275C1713.57 242.306 1712.5 235.035 1709.37 229.526L1695.46 237.43C1696.54 239.33 1697.57 243.258 1697.57 250.275H1713.57ZM1709.44 229.647C1705.77 222.922 1698.8 219.675 1691.38 218.289L1688.44 234.017C1693.65 234.989 1695.02 236.625 1695.39 237.309L1709.44 229.647ZM1691.5 218.313C1684.45 216.885 1674.37 216.259 1661.62 216.259V232.259C1674.13 232.259 1682.9 232.896 1688.32 233.994L1691.5 218.313ZM1661.62 216.259H1654.29V232.259H1661.62V216.259ZM1654.29 216.259C1641.46 216.259 1631.3 216.885 1624.18 218.309L1627.32 233.998C1632.83 232.895 1641.7 232.259 1654.29 232.259V216.259ZM1624.28 218.289C1616.84 219.678 1609.92 222.913 1606.17 229.526L1620.08 237.43C1620.53 236.635 1622.03 234.986 1627.22 234.017L1624.28 218.289ZM1606.1 229.647C1603.11 235.118 1602.09 242.335 1602.09 250.275H1618.09C1618.09 243.229 1619.09 239.248 1620.15 237.309L1606.1 229.647ZM1602.09 250.275V275.282H1618.09V250.275H1602.09ZM1602.09 275.282C1602.09 283.177 1603.13 290.337 1606.06 295.843L1620.18 288.314C1619.08 286.242 1618.09 282.205 1618.09 275.282H1602.09ZM1606.17 296.031C1609.9 302.601 1616.77 305.891 1624.18 307.375L1627.32 291.685C1622.11 290.643 1620.55 288.966 1620.08 288.127L1606.17 296.031ZM1624.28 307.394C1631.35 308.713 1641.47 309.298 1654.29 309.298V293.298C1641.69 293.298 1632.78 292.704 1627.22 291.666L1624.28 307.394ZM1856.17 224.259H1864.17V216.259H1856.17V224.259ZM1794.92 226.28L1790.22 219.81L1790.14 219.862L1790.07 219.916L1794.92 226.28ZM1788.99 307.992L1796.33 311.173L1796.34 311.151L1796.35 311.129L1788.99 307.992ZM1778.76 319.232L1782.39 326.361L1782.44 326.335L1782.49 326.308L1778.76 319.232ZM1749.96 320.369L1753.95 313.436L1753.95 313.436L1749.96 320.369ZM1768.53 299.151L1773.71 305.247L1773.71 305.247L1768.53 299.151ZM1773.96 216.555L1766.5 213.649L1773.96 216.555ZM1784.06 206.072L1781 198.68L1780.98 198.69L1780.96 198.699L1784.06 206.072ZM1877.39 203.041H1885.39V195.041H1877.39V203.041ZM1866.78 316.284C1865.78 316.284 1865.25 316.135 1865.04 316.054C1864.94 316.016 1864.91 315.989 1864.91 315.989C1864.9 315.988 1864.91 315.989 1864.91 315.99C1864.91 315.992 1864.91 315.99 1864.9 315.983C1864.88 315.959 1864.17 315.075 1864.17 311.907H1848.17C1848.17 316.99 1849.24 322.295 1852.75 326.396C1856.47 330.733 1861.66 332.284 1866.78 332.284V316.284ZM1864.17 311.907V224.259H1848.17V311.907H1864.17ZM1856.17 216.259H1806.16V232.259H1856.17V216.259ZM1806.16 216.259C1803.07 216.259 1800.21 216.44 1797.71 216.89C1795.33 217.317 1792.56 218.105 1790.22 219.81L1799.63 232.749C1799.14 233.107 1799.16 232.885 1800.54 232.638C1801.78 232.415 1803.61 232.259 1806.16 232.259V216.259ZM1790.07 219.916C1785.11 223.7 1784.27 229.985 1784.27 234.615H1800.27C1800.27 233.001 1800.45 232.141 1800.56 231.799C1800.65 231.493 1800.55 232.051 1799.77 232.643L1790.07 219.916ZM1784.27 234.615V288.164H1800.27V234.615H1784.27ZM1784.27 288.164C1784.27 295.612 1783.25 301.05 1781.63 304.855L1796.35 311.129C1799.1 304.661 1800.27 296.881 1800.27 288.164H1784.27ZM1781.65 304.811C1780.14 308.284 1777.96 310.61 1775.03 312.155L1782.49 326.308C1788.82 322.971 1793.45 317.803 1796.33 311.173L1781.65 304.811ZM1775.13 312.103C1772 313.697 1767.35 314.768 1760.7 314.768V330.768C1768.87 330.768 1776.26 329.482 1782.39 326.361L1775.13 312.103ZM1760.7 314.768C1757.23 314.768 1755.15 314.126 1753.95 313.436L1745.97 327.302C1750.33 329.81 1755.41 330.768 1760.7 330.768V314.768ZM1753.95 313.436C1753.9 313.404 1753.92 313.405 1753.96 313.452C1754 313.499 1754.02 313.534 1754.01 313.519C1753.99 313.476 1753.79 313.04 1753.79 311.907H1737.79C1737.79 317.943 1740.04 323.889 1745.97 327.302L1753.95 313.436ZM1753.79 311.907C1753.79 310.967 1753.94 310.514 1754 310.367C1754.05 310.269 1754.06 310.258 1754.11 310.22C1754.32 310.051 1755.56 309.298 1759.18 309.298V293.298C1753.88 293.298 1748.42 294.313 1744.17 297.68C1739.57 301.329 1737.79 306.579 1737.79 311.907H1753.79ZM1759.18 309.298C1763.95 309.298 1769.67 308.676 1773.71 305.247L1763.35 293.056C1763.82 292.653 1763.96 292.775 1763.14 292.964C1762.36 293.144 1761.08 293.298 1759.18 293.298V309.298ZM1773.71 305.247C1778.15 301.471 1779.05 295.74 1779.05 291.195H1763.05C1763.05 292.606 1762.89 293.364 1762.8 293.668C1762.71 293.932 1762.78 293.534 1763.35 293.056L1773.71 305.247ZM1779.05 291.195V237.393H1763.05V291.195H1779.05ZM1779.05 237.393C1779.05 228.884 1780 223.084 1781.41 219.461L1766.5 213.649C1764.04 219.961 1763.05 228.053 1763.05 237.393H1779.05ZM1781.41 219.461C1782.58 216.455 1784.41 214.604 1787.17 213.446L1780.96 198.699C1774.11 201.582 1769.21 206.72 1766.5 213.649L1781.41 219.461ZM1787.12 213.465C1790.62 212.015 1796.12 211.041 1804.14 211.041V195.041C1795.15 195.041 1787.27 196.088 1781 198.68L1787.12 213.465ZM1804.14 211.041H1877.39V195.041H1804.14V211.041ZM1869.39 203.041V311.654H1885.39V203.041H1869.39ZM1869.39 311.654C1869.39 314.938 1868.67 315.91 1868.61 315.981C1868.61 315.992 1868.6 315.996 1868.6 315.996C1868.6 315.996 1868.6 315.997 1868.6 315.998C1868.6 315.999 1868.59 316.005 1868.57 316.014C1868.55 316.024 1868.52 316.039 1868.47 316.058C1868.28 316.134 1867.78 316.284 1866.78 316.284V332.284C1871.95 332.284 1877.16 330.678 1880.87 326.272C1884.34 322.132 1885.39 316.79 1885.39 311.654H1869.39ZM2019.43 233.099H2027.43V213.367L2013.69 227.528L2019.43 233.099ZM1932.67 322.516V330.516H1936.05L1938.41 328.087L1932.67 322.516ZM1912.84 322.516H1904.84V330.516H1912.84V322.516ZM1934.05 293.468H1926.05V313.236L1939.8 299.032L1934.05 293.468ZM2021.58 203.041V195.041H2018.19L2015.83 197.478L2021.58 203.041ZM2040.65 203.041H2048.65V195.041H2040.65V203.041ZM2030.04 316.284C2029.08 316.284 2028.61 316.134 2028.45 316.068C2028.34 316.021 2028.33 316.004 2028.31 315.973C2028.17 315.809 2027.43 314.659 2027.43 311.149H2011.43C2011.43 316.396 2012.46 321.813 2015.86 326.027C2019.53 330.567 2024.76 332.284 2030.04 332.284V316.284ZM2027.43 311.149V233.099H2011.43V311.149H2027.43ZM2013.69 227.528L1926.92 316.944L1938.41 328.087L2025.17 238.67L2013.69 227.528ZM1932.67 314.516H1912.84V330.516H1932.67V314.516ZM1920.84 322.516V213.65H1904.84V322.516H1920.84ZM1920.84 213.65C1920.84 210.482 1921.54 209.598 1921.56 209.574C1921.57 209.567 1921.57 209.565 1921.57 209.567C1921.57 209.568 1921.57 209.569 1921.57 209.568C1921.57 209.568 1921.61 209.541 1921.7 209.503C1921.91 209.422 1922.44 209.273 1923.45 209.273V193.273C1918.33 193.273 1913.13 194.824 1909.42 199.161C1905.9 203.262 1904.84 208.567 1904.84 213.65H1920.84ZM1923.45 209.273C1924.4 209.273 1924.87 209.423 1925.04 209.489C1925.15 209.536 1925.15 209.553 1925.18 209.584C1925.31 209.748 1926.05 210.898 1926.05 214.408H1942.05C1942.05 209.161 1941.03 203.744 1937.63 199.53C1933.96 194.99 1928.72 193.273 1923.45 193.273V209.273ZM1926.05 214.408V293.468H1942.05V214.408H1926.05ZM1939.8 299.032L2027.33 208.605L2015.83 197.478L1928.31 287.904L1939.8 299.032ZM2021.58 211.041H2040.65V195.041H2021.58V211.041ZM2032.65 203.041V311.907H2048.65V203.041H2032.65ZM2032.65 311.907C2032.65 315.075 2031.94 315.959 2031.92 315.983C2031.91 315.99 2031.91 315.992 2031.91 315.99C2031.92 315.989 2031.92 315.988 2031.92 315.989C2031.92 315.989 2031.88 316.016 2031.78 316.054C2031.57 316.135 2031.05 316.284 2030.04 316.284V332.284C2035.16 332.284 2040.35 330.733 2044.07 326.396C2047.58 322.295 2048.65 316.99 2048.65 311.907H2032.65ZM2182.48 322.516H2190.48V314.516H2182.48V322.516ZM2075.89 322.516H2067.89V330.516H2075.89V322.516ZM2097.1 301.298H2089.1V309.298H2097.1V301.298ZM2167.83 301.298V309.298H2175.83V301.298H2167.83ZM2189.04 312.412L2182.85 317.469L2197.04 334.874V312.412H2189.04ZM2181.21 302.814V294.814H2164.36L2175.02 307.871L2181.21 302.814ZM2187.02 302.814L2187.21 294.816L2187.11 294.814H2187.02V302.814ZM2193.09 337.754C2192.11 337.754 2191.62 337.604 2191.45 337.533C2191.32 337.481 2191.32 337.462 2191.3 337.447C2191.21 337.33 2190.48 336.269 2190.48 332.872H2174.48C2174.48 338.062 2175.51 343.442 2178.95 347.619C2182.64 352.093 2187.86 353.754 2193.09 353.754V337.754ZM2190.48 332.872V322.516H2174.48V332.872H2190.48ZM2182.48 314.516H2075.89V330.516H2182.48V314.516ZM2083.89 322.516V213.398H2067.89V322.516H2083.89ZM2083.89 213.398C2083.89 211.934 2084.05 210.951 2084.23 210.333C2084.32 210.033 2084.4 209.841 2084.46 209.728C2084.52 209.618 2084.55 209.576 2084.56 209.572C2084.56 209.569 2084.56 209.57 2084.56 209.573C2084.55 209.576 2084.55 209.577 2084.55 209.576C2084.55 209.576 2084.59 209.547 2084.7 209.507C2084.92 209.422 2085.47 209.273 2086.49 209.273V193.273C2081.43 193.273 2076.25 194.771 2072.52 199.036C2068.96 203.098 2067.89 208.366 2067.89 213.398H2083.89ZM2086.49 209.273C2087.52 209.273 2088.06 209.422 2088.29 209.507C2088.39 209.547 2088.43 209.576 2088.43 209.576C2088.44 209.577 2088.43 209.576 2088.43 209.573C2088.43 209.57 2088.43 209.569 2088.43 209.572C2088.43 209.576 2088.47 209.618 2088.53 209.728C2088.59 209.841 2088.67 210.033 2088.76 210.333C2088.94 210.951 2089.1 211.934 2089.1 213.398H2105.1C2105.1 208.366 2104.02 203.098 2100.47 199.036C2096.74 194.771 2091.56 193.273 2086.49 193.273V209.273ZM2089.1 213.398V301.298H2105.1V213.398H2089.1ZM2097.1 309.298H2167.83V293.298H2097.1V309.298ZM2175.83 301.298V213.398H2159.83V301.298H2175.83ZM2175.83 213.398C2175.83 211.934 2175.99 210.951 2176.17 210.333C2176.26 210.033 2176.34 209.841 2176.4 209.728C2176.46 209.618 2176.5 209.576 2176.5 209.572C2176.5 209.569 2176.5 209.57 2176.5 209.573C2176.5 209.576 2176.49 209.577 2176.5 209.576C2176.5 209.576 2176.54 209.547 2176.64 209.507C2176.87 209.422 2177.41 209.273 2178.44 209.273V193.273C2173.37 193.273 2168.19 194.771 2164.46 199.036C2160.9 203.098 2159.83 208.366 2159.83 213.398H2175.83ZM2178.44 209.273C2179.44 209.273 2179.97 209.422 2180.18 209.503C2180.28 209.541 2180.31 209.568 2180.31 209.568C2180.31 209.569 2180.31 209.568 2180.31 209.567C2180.31 209.565 2180.31 209.567 2180.32 209.574C2180.34 209.598 2181.04 210.482 2181.04 213.65H2197.04C2197.04 208.567 2195.98 203.262 2192.47 199.161C2188.75 194.824 2183.55 193.273 2178.44 193.273V209.273ZM2181.04 213.65V312.412H2197.04V213.65H2181.04ZM2195.24 307.355L2187.41 297.757L2175.02 307.871L2182.85 317.469L2195.24 307.355ZM2181.21 310.814H2187.02V294.814H2181.21V310.814ZM2186.84 310.812C2191.01 310.906 2192.79 312.034 2193.63 312.955C2194.56 313.971 2195.69 316.186 2195.69 321H2211.69C2211.69 313.942 2210.05 307.191 2205.42 302.144C2200.71 297.003 2194.15 294.974 2187.21 294.816L2186.84 310.812ZM2195.69 321V332.872H2211.69V321H2195.69ZM2195.69 332.872C2195.69 336.269 2194.96 337.33 2194.87 337.447C2194.86 337.462 2194.85 337.481 2194.73 337.533C2194.55 337.604 2194.06 337.754 2193.09 337.754V353.754C2198.31 353.754 2203.53 352.093 2207.22 347.619C2210.66 343.442 2211.69 338.062 2211.69 332.872H2195.69ZM2328.96 322.389L2334.44 316.553L2334.34 316.459L2334.23 316.369L2328.96 322.389ZM2325.93 314.685L2318.02 315.864L2318.03 315.946L2318.05 316.028L2325.93 314.685ZM2325.05 296.499L2332.42 293.382L2317.05 296.499H2325.05ZM2327.83 303.066L2334.31 307.758L2336.95 304.104L2335.2 299.949L2327.83 303.066ZM2307.87 318.348L2310.52 325.896L2310.55 325.888L2310.57 325.88L2307.87 318.348ZM2233.87 313.422L2228.01 318.875L2228.05 318.917L2228.09 318.958L2233.87 313.422ZM2229.07 266.062L2236.29 269.502L2236.3 269.48L2236.31 269.458L2229.07 266.062ZM2240.81 253.054L2245.02 259.856L2245.06 259.832L2245.1 259.808L2240.81 253.054ZM2261.14 245.729L2262.59 253.597L2262.59 253.597L2261.14 245.729ZM2333.38 243.455L2338.72 249.417L2354.32 235.455H2333.38V243.455ZM2323.79 252.043H2315.79V269.936L2329.12 258.005L2323.79 252.043ZM2321.89 226.027L2316.24 231.684L2316.33 231.781L2316.43 231.875L2321.89 226.027ZM2258.74 224.89L2258.01 216.924L2257.99 216.926L2258.74 224.89ZM2249.4 227.416L2253.84 234.073L2253.94 234.001L2254.05 233.926L2249.4 227.416ZM2246.49 232.594L2254.47 233.208L2254.47 233.196L2254.47 233.185L2246.49 232.594ZM2244.09 242.319L2237.23 238.203L2237.23 238.203L2244.09 242.319ZM2237.78 209.988L2241.61 217.011L2241.64 216.996L2241.67 216.981L2237.78 209.988ZM2338.44 210.745L2332.35 215.935L2332.35 215.935L2338.44 210.745ZM2313.68 292.71L2319.23 298.475L2319.23 298.474L2313.68 292.71ZM2323.79 262.147L2329.44 256.49L2315.79 242.833V262.147H2323.79ZM2325.3 263.663V271.663H2344.62L2330.96 258.006L2325.3 263.663ZM2264.3 265.304L2265.55 273.206L2265.59 273.2L2265.63 273.193L2264.3 265.304ZM2250.54 271.366L2244.64 265.961L2244.6 266.006L2244.56 266.052L2250.54 271.366ZM2249.27 297.636L2242.4 301.724L2242.44 301.792L2242.48 301.859L2249.27 297.636ZM2334.14 316.284C2333.89 316.284 2333.88 316.247 2334.02 316.297C2334.08 316.321 2334.16 316.357 2334.24 316.408C2334.33 316.459 2334.39 316.511 2334.44 316.553L2323.49 328.226C2326.53 331.075 2330.31 332.284 2334.14 332.284V316.284ZM2334.23 316.369C2334.6 316.689 2334.76 316.945 2334.79 316.984C2334.81 317.026 2334.75 316.937 2334.64 316.65C2334.41 316.052 2334.1 315 2333.82 313.343L2318.05 316.028C2318.44 318.328 2318.98 320.538 2319.75 322.508C2320.49 324.397 2321.68 326.644 2323.7 328.41L2334.23 316.369ZM2333.85 313.507C2333.35 310.162 2333.05 304.589 2333.05 296.499H2317.05C2317.05 304.743 2317.34 311.294 2318.02 315.864L2333.85 313.507ZM2317.68 299.616L2320.46 306.183L2335.2 299.949L2332.42 293.382L2317.68 299.616ZM2321.35 298.374C2316.93 304.482 2311.56 308.532 2305.18 310.816L2310.57 325.88C2320.19 322.438 2328.12 316.301 2334.31 307.758L2321.35 298.374ZM2305.22 310.799C2298.36 313.208 2289.95 314.516 2279.84 314.516V330.516C2291.27 330.516 2301.55 329.045 2310.52 325.896L2305.22 310.799ZM2279.84 314.516H2256.35V330.516H2279.84V314.516ZM2256.35 314.516C2249.12 314.516 2243.79 312.22 2239.64 307.887L2228.09 318.958C2235.56 326.749 2245.21 330.516 2256.35 330.516V314.516ZM2239.72 307.97C2235.9 303.874 2233.28 296.934 2233.28 285.638H2217.28C2217.28 299.095 2220.38 310.678 2228.01 318.875L2239.72 307.97ZM2233.28 285.638C2233.28 278.719 2234.41 273.446 2236.29 269.502L2221.84 262.623C2218.67 269.287 2217.28 277.064 2217.28 285.638H2233.28ZM2236.31 269.458C2238.14 265.545 2240.97 262.364 2245.02 259.856L2236.6 246.252C2230.04 250.311 2225.04 255.803 2221.82 262.667L2236.31 269.458ZM2245.1 259.808C2249.3 257.141 2255.03 254.986 2262.59 253.597L2259.7 237.86C2250.76 239.503 2242.93 242.231 2236.52 246.3L2245.1 259.808ZM2262.59 253.597C2270.23 252.194 2279.57 251.455 2290.7 251.455V235.455C2278.92 235.455 2268.56 236.232 2259.7 237.86L2262.59 253.597ZM2290.7 251.455H2333.38V235.455H2290.7V251.455ZM2328.05 237.494L2318.45 246.082L2329.12 258.005L2338.72 249.417L2328.05 237.494ZM2331.79 252.043V233.352H2315.79V252.043H2331.79ZM2331.79 233.352C2331.79 231.108 2331.6 228.842 2331.06 226.739C2330.53 224.685 2329.49 222.18 2327.35 220.178L2316.43 231.875C2315.98 231.453 2315.74 231.062 2315.63 230.857C2315.53 230.659 2315.53 230.595 2315.57 230.745C2315.61 230.891 2315.66 231.174 2315.71 231.628C2315.76 232.077 2315.79 232.647 2315.79 233.352H2331.79ZM2327.55 220.37C2325.4 218.224 2322.72 217.328 2320.75 216.891C2318.65 216.423 2316.31 216.259 2313.94 216.259V232.259C2315.68 232.259 2316.74 232.389 2317.28 232.51C2317.54 232.567 2317.54 232.592 2317.38 232.517C2317.22 232.443 2316.76 232.207 2316.24 231.684L2327.55 220.37ZM2313.94 216.259H2278.32V232.259H2313.94V216.259ZM2278.32 216.259C2269.74 216.259 2262.92 216.469 2258.01 216.924L2259.48 232.856C2263.66 232.47 2269.89 232.259 2278.32 232.259V216.259ZM2257.99 216.926C2253.33 217.366 2248.36 218.329 2244.75 220.906L2254.05 233.926C2253.88 234.048 2254.11 233.842 2255.15 233.56C2256.14 233.293 2257.56 233.038 2259.5 232.855L2257.99 216.926ZM2244.96 220.76C2240.98 223.417 2238.85 227.477 2238.52 232.003L2254.47 233.185C2254.48 233.039 2254.49 233.207 2254.32 233.509C2254.24 233.651 2254.15 233.781 2254.05 233.888C2253.95 233.994 2253.87 234.052 2253.84 234.073L2244.96 220.76ZM2238.52 231.981C2238.21 235.951 2237.54 237.701 2237.23 238.203L2250.95 246.435C2253.18 242.727 2254.1 237.993 2254.47 233.208L2238.52 231.981ZM2237.23 238.203C2237.44 237.868 2237.68 237.603 2237.91 237.421C2238.13 237.249 2238.27 237.203 2238.22 237.22C2238.17 237.239 2237.97 237.308 2237.57 237.369C2237.17 237.43 2236.61 237.476 2235.89 237.476V253.476C2240.86 253.476 2247.44 252.296 2250.95 246.435L2237.23 238.203ZM2235.89 237.476C2234.96 237.476 2234.53 237.327 2234.4 237.271C2234.31 237.234 2234.3 237.221 2234.24 237.155C2234.04 236.893 2233.28 235.567 2233.28 231.836H2217.28C2217.28 237.199 2218.28 242.693 2221.61 246.978C2225.24 251.644 2230.5 253.476 2235.89 253.476V237.476ZM2233.28 231.836C2233.28 227.95 2234.08 225.05 2235.35 222.833C2236.6 220.64 2238.57 218.671 2241.61 217.011L2233.95 202.964C2228.66 205.851 2224.37 209.797 2221.46 214.886C2218.56 219.953 2217.28 225.704 2217.28 231.836H2233.28ZM2241.67 216.981C2248.19 213.358 2259.44 211.041 2276.55 211.041V195.041C2258.64 195.041 2244.04 197.356 2233.9 202.994L2241.67 216.981ZM2276.55 211.041H2315.7V195.041H2276.55V211.041ZM2315.7 211.041C2325.52 211.041 2330.2 213.417 2332.35 215.935L2344.52 205.555C2337.91 197.801 2327.44 195.041 2315.7 195.041V211.041ZM2332.35 215.935C2334.8 218.808 2337 225.212 2337 237.393H2353C2353 224.316 2350.83 212.955 2344.52 205.555L2332.35 215.935ZM2337 237.393V312.159H2353V237.393H2337ZM2337 312.159C2337 313.609 2336.84 314.575 2336.66 315.175C2336.57 315.466 2336.49 315.652 2336.43 315.76C2336.37 315.865 2336.34 315.907 2336.33 315.915C2336.32 315.92 2336.32 315.923 2336.31 315.932C2336.29 315.942 2336.24 315.979 2336.1 316.028C2335.83 316.13 2335.23 316.284 2334.14 316.284V332.284C2339.24 332.284 2344.46 330.821 2348.25 326.591C2351.89 322.527 2353 317.23 2353 312.159H2337ZM2257.1 310.308H2279.84V294.308H2257.1V310.308ZM2279.84 310.308C2296.43 310.308 2310.32 307.045 2319.23 298.475L2308.14 286.945C2303.74 291.173 2295.07 294.308 2279.84 294.308V310.308ZM2319.23 298.474C2328.16 289.882 2331.79 277.16 2331.79 262.147H2315.79C2315.79 274.919 2312.68 282.573 2308.14 286.946L2319.23 298.474ZM2318.13 267.804L2319.65 269.319L2330.96 258.006L2329.44 256.49L2318.13 267.804ZM2325.3 255.663H2290.7V271.663H2325.3V255.663ZM2290.7 255.663C2279.4 255.663 2270.09 256.214 2262.97 257.416L2265.63 273.193C2271.48 272.206 2279.77 271.663 2290.7 271.663V255.663ZM2263.05 257.402C2255.83 258.542 2249.17 261.02 2244.64 265.961L2256.43 276.772C2257.46 275.651 2259.97 274.087 2265.55 273.206L2263.05 257.402ZM2244.56 266.052C2240.06 271.107 2238.49 277.851 2238.49 284.88H2254.49C2254.49 279.953 2255.62 277.688 2256.52 276.681L2244.56 266.052ZM2238.49 284.88C2238.49 291.055 2239.53 296.911 2242.4 301.724L2256.15 293.547C2255.31 292.13 2254.49 289.482 2254.49 284.88H2238.49ZM2242.48 301.859C2245.67 306.996 2250.69 310.308 2257.1 310.308V294.308C2256.92 294.308 2256.83 294.287 2256.81 294.282C2256.79 294.278 2256.79 294.276 2256.78 294.271C2256.78 294.268 2256.5 294.107 2256.07 293.412L2242.48 301.859Z" fill="#222222" mask="url(#path-7-outside-1_8_147)"/>
<path d="M59.3635 361.594V417H51.4484V369.509H11.8727V417H3.95757V361.594H59.3635ZM113.962 401.17V377.424C113.962 373.071 110.401 369.509 106.047 369.509H82.3019C77.9486 369.509 74.3868 373.071 74.3868 377.424V401.17C74.3868 405.523 77.9486 409.085 82.3019 409.085H106.047C110.401 409.085 113.962 405.523 113.962 401.17ZM121.878 377.424V401.17C121.878 409.876 114.754 417 106.047 417H82.3019C73.5161 417 66.4716 409.956 66.4716 401.17V377.424C66.4716 368.718 73.5953 361.594 82.3019 361.594H106.047C114.437 361.594 121.878 368.797 121.878 377.424ZM176.514 369.509H136.938V417H129.023V361.594H176.514V369.509ZM227.993 385.339V377.424C227.993 373.071 224.431 369.509 220.078 369.509H188.417V393.255H220.078C224.431 393.255 227.993 389.693 227.993 385.339ZM235.908 377.424V385.339C235.908 393.73 228.943 401.17 220.078 401.17H188.417V417H180.502V361.594H220.078C228.547 361.594 235.671 368.639 235.908 377.424ZM258.884 409.085H281.046C285.399 409.085 288.961 405.523 288.961 401.17V393.255H257.301C248.831 393.255 241.47 386.368 241.47 377.424V361.594H249.385V377.424C249.385 381.778 252.947 385.339 257.301 385.339H288.961V361.594H296.876V401.17C296.876 409.56 289.911 417 281.046 417H258.884C250.256 417 243.291 410.114 243.053 401.17H250.968C250.968 405.523 254.53 409.085 258.884 409.085ZM326.957 393.255V385.339H342.787C347.14 385.339 350.702 381.778 350.702 377.424C350.702 373.071 347.14 369.509 342.787 369.509H319.042C314.688 369.509 311.126 373.071 311.126 377.424H303.211C303.211 369.034 310.177 361.594 319.042 361.594H342.787C351.098 361.594 358.617 368.639 358.617 377.424C358.617 382.173 356.797 386.131 353.235 389.297C356.797 392.463 358.617 396.421 358.617 401.17C358.617 409.56 351.652 417 342.787 417H319.042C310.414 417 303.449 410.114 303.211 401.17H311.126C311.126 405.523 314.688 409.085 319.042 409.085H342.787C347.14 409.085 350.702 405.523 350.702 401.17C350.702 396.816 347.14 393.255 342.787 393.255H326.957ZM412.403 401.17V377.424C412.403 373.071 408.841 369.509 404.488 369.509H380.743C376.389 369.509 372.827 373.071 372.827 377.424V401.17C372.827 405.523 376.389 409.085 380.743 409.085H404.488C408.841 409.085 412.403 405.523 412.403 401.17ZM420.318 377.424V401.17C420.318 409.876 413.195 417 404.488 417H380.743C371.957 417 364.912 409.956 364.912 401.17V377.424C364.912 368.718 372.036 361.594 380.743 361.594H404.488C412.878 361.594 420.318 368.797 420.318 377.424ZM442.502 389.218H474.163V361.594H482.078V417H474.163V397.133H442.502C434.033 397.133 426.672 390.247 426.672 381.303V361.594H434.587V381.303C434.587 385.656 438.149 389.218 442.502 389.218ZM497.911 361.594V385.339H537.487V361.594H545.402V417H537.487V393.255H497.911V417H489.996V361.594H497.911ZM592.877 369.509H569.132C564.779 369.509 561.217 373.071 561.217 377.424V393.255H600.792V377.424C600.792 373.071 597.231 369.509 592.877 369.509ZM608.708 377.424V417H600.792V401.17H561.217V417H553.302V377.424C553.302 369.034 560.267 361.594 569.132 361.594H592.877C601.347 361.594 608.47 368.639 608.708 377.424ZM624.522 377.424V385.339C624.522 389.693 628.084 393.255 632.438 393.255H664.098V369.509H632.438C628.084 369.509 624.522 373.071 624.522 377.424ZM638.057 401.17L622.227 417H616.607V411.38L627.609 400.378C621.277 398.32 616.607 392.384 616.607 385.339V377.424C616.607 369.034 623.573 361.594 632.438 361.594H672.013V417H664.098V401.17H638.057ZM763.053 369.509H739.307V417H731.392V369.509H707.647V361.594H763.053V369.509ZM774.941 369.509V385.339H814.516V393.255H774.941V409.085H822.432V417H767.026V361.594H822.432V369.509H774.941ZM874.693 361.594H882.608V373.467L861.475 389.376L882.608 405.286V417H874.693V409.243L854.905 394.363L835.117 409.243V417H827.202V405.286L848.336 389.376L827.202 373.467V361.594H835.117V369.509L854.905 384.39L874.693 369.509V361.594ZM896.837 361.594V385.339H936.413V361.594H944.328V417H936.413V393.255H896.837V417H888.922V361.594H896.837ZM952.227 417V361.594H960.143V405.523L999.718 361.594H1007.63V417H999.718V372.28L960.143 417H952.227ZM1070.94 361.594L1043.24 389.297L1070.94 417H1059.78L1036.03 393.255H1023.45V417H1015.53V361.594H1023.45V385.339H1036.03L1059.78 361.594H1070.94ZM1114.47 369.509H1090.73C1086.37 369.509 1082.81 373.071 1082.81 377.424V393.255H1122.39V377.424C1122.39 373.071 1118.83 369.509 1114.47 369.509ZM1130.3 377.424V417H1122.39V401.17H1082.81V417H1074.9V377.424C1074.9 369.034 1081.86 361.594 1090.73 361.594H1114.47C1122.94 361.594 1130.06 368.639 1130.3 377.424Z" fill="#1E1E1E"/>
</svg>
