<svg width="207" height="204" viewBox="0 0 207 204" fill="none" xmlns="http://www.w3.org/2000/svg">
<path fill-rule="evenodd" clip-rule="evenodd" d="M68.0532 92.2269C68.8053 91.9462 69.7839 91.3345 70.0833 91.0826C69.5794 90.8379 69.1924 90.55 68.6739 90.0535C68.2065 89.5857 67.0965 87.4194 62.7953 87.4194C58.1581 87.4194 56.1937 90.5788 56.1937 93.0833C56.1937 93.364 56.1791 93.7454 56.2594 94.1052C50.264 96.9048 44.8746 100.064 38.8938 107.268H54.1636C53.2946 107.599 51.9655 108.11 50.9212 108.988L52.1627 113.321C54.4484 113.191 56.6173 112.558 58.0413 111.932C59.3703 111.334 65.1321 108.722 67.3448 101.554C67.5493 100.827 68.4548 97.0847 68.5716 96.5234C68.6739 95.9764 69.0244 94.6522 70.1344 93.8893C69.8277 93.6231 68.9733 92.961 68.0532 92.5507C67.7318 92.4428 67.7318 92.342 68.0532 92.2269Z" fill="#E40520"/>
<path fill-rule="evenodd" clip-rule="evenodd" d="M63.2626 89.9453C61.9701 89.9453 60.9258 90.9672 60.9258 92.2267C60.9258 93.4861 61.9701 94.5153 63.2626 94.5153C64.5406 94.5153 65.5776 93.4861 65.5776 92.2267C65.5776 90.9672 64.5406 89.9453 63.2626 89.9453Z" fill="#00904A"/>
<path fill-rule="evenodd" clip-rule="evenodd" d="M58.2237 79.3157H36.4546L29.2834 99.992H40.5733C40.9457 99.7114 41.4642 99.2796 42.1507 98.8334L47.1091 83.0436L50.5049 93.9539C50.943 93.7236 52.0676 93.1623 52.5861 92.9104C52.8563 88.6067 56.1279 86.1886 60.4291 85.692L58.2237 79.3157Z" fill="#E40520"/>
<path fill-rule="evenodd" clip-rule="evenodd" d="M26.4428 108.218L20.9805 123.828H34.1836L38.0759 111.529H29.1959C29.5172 110.499 30.1891 109.06 30.839 108.218H26.4428Z" fill="#E40520"/>
<path fill-rule="evenodd" clip-rule="evenodd" d="M54.5649 113.018L57.8876 123.828H61.3126L57.6832 112.076C56.8799 112.421 55.6676 112.788 54.5649 113.018Z" fill="#00904A"/>
<path fill-rule="evenodd" clip-rule="evenodd" d="M67.1258 104.677C65.9208 106.98 63.6497 110.305 58.8811 112.622L62.2549 123.828H73.7638L67.1258 104.677Z" fill="#E40520"/>
<path fill-rule="evenodd" clip-rule="evenodd" d="M75.5749 92.1118C74.7497 91.7951 73.26 91.2842 71.427 91.2842C70.9086 91.2842 70.3828 91.2194 70.0834 91.0898C69.7767 91.3345 68.8054 91.9463 68.0532 92.2341C67.7319 92.3493 67.7319 92.45 68.0532 92.5652C68.9734 92.9754 69.8351 93.6447 70.1345 93.9038C71.4928 92.925 72.6174 93.7742 75.5749 92.45C75.8963 92.3277 75.8743 92.2269 75.5749 92.1118Z" fill="#00904A"/>
<path fill-rule="evenodd" clip-rule="evenodd" d="M25.1866 103.914L25.3035 104.029L25.1866 104.145C23.1346 104.145 21.7763 105.569 21.5938 107.21H32.9274C32.1095 107.988 31.131 109.261 30.576 110.593H47.927L51.9069 123.835H55.383L52.1552 113.342L50.9138 109.01C51.958 108.132 53.2798 107.621 54.1561 107.29H38.8937C44.8745 100.086 50.2638 96.9261 56.2593 94.1266C56.1716 93.7596 56.1936 93.3781 56.1936 93.1046C56.1936 90.6002 58.158 87.4408 62.7951 87.4408C64.3214 87.4408 66.0229 87.7358 67.2789 88.6498C66.5414 87.9733 64.1388 86.5988 61.5391 86.6131C56.3834 86.6491 53.2725 89.9093 53.5427 93.5509C50.2492 95.0262 44.5386 98.0344 40.9092 100.949H21.6084C21.8566 102.669 23.2003 103.914 25.1866 103.914Z" fill="#00904A"/>
<path fill-rule="evenodd" clip-rule="evenodd" d="M63.1605 92.493L65.4097 91.3847C65.1614 90.7586 64.621 90.262 63.9638 90.0461L62.9049 92.2627C62.81 92.5074 62.9122 92.6082 63.1605 92.493Z" fill="white"/>
<path fill-rule="evenodd" clip-rule="evenodd" d="M121.311 95.5662H111.387L111.372 107.88C111.372 112.745 109.729 115.825 106.282 115.825C103.683 115.825 102.368 114.134 102.368 109.42V95.5662H102.237H93.5027H92.8455V107.88C92.8455 112.745 91.1805 115.825 87.7409 115.825C85.1193 115.825 83.8267 114.134 83.8267 109.42L83.8121 95.5662H72.9751L72.9604 112.371C72.9604 121.208 77.751 123.893 83.8121 124.325C88.128 124.641 91.8888 122.058 93.5684 120.237C95.5328 122.986 98.7095 124.058 102.368 124.325C106.669 124.641 110.43 122.058 112.11 120.237L112.095 123.828H112.599H121.464L121.296 123.778L121.311 95.5662Z" fill="#E40520"/>
<path fill-rule="evenodd" clip-rule="evenodd" d="M152.135 109.593C152.135 109.456 152.187 103.67 151.413 102.029C150.638 100.388 149.046 96.5162 142.189 95.1776C140.795 94.8969 139.363 94.7961 137.99 94.7961C132.63 94.8177 127.847 96.5665 126.985 97.1999V104.166C126.985 104.166 131.703 101.633 135.354 101.633C136.179 101.633 137.099 101.647 137.99 101.784C140.093 102.079 142.058 103.008 142.204 105.807C142.204 105.807 140.758 105.757 138.677 105.757H137.99C131.425 105.843 123.597 107.297 123.458 115.041C123.341 121.316 128.95 124.231 133.872 124.094C133.872 124.094 135.748 124.195 137.983 123.483C139.626 122.972 141.459 122.007 142.868 120.273C142.868 122.792 143.088 123.828 143.088 123.828H152.391C152.406 123.828 152.135 118.992 152.135 109.593ZM137.99 117.408C135.909 117.819 133.828 116.926 133.704 114.774C133.587 112.637 135.785 111.809 137.99 111.543C139.889 111.313 141.817 111.514 142.277 111.68C142.292 115.091 140.145 116.977 137.99 117.408Z" fill="#E40520"/>
<path fill-rule="evenodd" clip-rule="evenodd" d="M176.059 95.5662V107.139H166.376L166.412 95.5662H155.867L155.896 123.828H166.346L166.376 113.479H176.059L176.073 123.828H186.516L186.589 95.5662H176.059Z" fill="#E40520"/>
</svg>
