<svg width="157" height="93" viewBox="0 0 157 93" fill="none" xmlns="http://www.w3.org/2000/svg"><path fill-rule="evenodd" clip-rule="evenodd" d="M16.2413 93H139.999L78.4553 32.3555L16.2413 93Z" fill="#76B82A"/><path fill-rule="evenodd" clip-rule="evenodd" d="M13.8829 89.9545L23.5223 80.6862L20.3062 77.4383L14.2492 83.2651L3.5824 72.4917L0 75.9332L13.8829 89.9545Z" fill="black"/><path fill-rule="evenodd" clip-rule="evenodd" d="M25.6395 78.5738L35.5201 69.0766L32.8043 66.3393L26.5329 72.3685L23.5133 69.3231L28.5429 64.4909L25.702 61.6303L20.6813 66.4537L18.0995 63.8484L24.1654 58.0216L21.4496 55.2842L11.6047 64.7461L25.6395 78.5738Z" fill="black"/><path fill-rule="evenodd" clip-rule="evenodd" d="M37.6017 67.1491L41.3092 63.5931L33.7334 55.9444L45.9815 59.1306L49.6532 55.6011C49.6532 55.6011 40.7821 52.6173 40.3622 52.6877C40.2282 52.7141 42.2651 47.3538 37.6821 44.9861C37.6821 44.9861 34.2784 43.1729 30.8747 46.2184L23.6116 53.2686L37.6017 67.1491Z" fill="black"/><path fill-rule="evenodd" clip-rule="evenodd" d="M58.0599 47.6531C62.9734 42.9353 61.2224 36.8268 57.9705 33.5437C53.9861 29.5213 47.0714 30.0054 43.7481 33.2005C40.4159 36.4043 38.7185 42.7856 43.4176 47.5298C48.5902 52.7493 54.7276 50.8569 58.0599 47.6531Z" fill="black"/><path fill-rule="evenodd" clip-rule="evenodd" d="M55.0493 44.8982C57.2559 42.777 57.1308 40.691 53.5663 37.091C50.4395 33.9312 47.813 35.049 46.5176 36.2901C44.6326 38.0944 44.4807 40.7262 47.0715 43.3315C50.1447 46.4386 52.8426 47.0195 55.0493 44.8982Z" fill="white"/><path fill-rule="evenodd" clip-rule="evenodd" d="M69.0839 36.8886L72.7288 33.3854L67.2525 27.8491L63.9649 14.3911L59.784 18.4047L61.9638 26.0447L54.6203 23.3778L50.6806 27.1626L63.1967 31.1234L69.0839 36.8886Z" fill="black"/><path fill-rule="evenodd" clip-rule="evenodd" d="M33.5726 55.8122C33.5726 55.8122 30.3476 52.5555 30.2315 52.4411C30.1153 52.3267 32.5363 50.2758 32.9205 49.915C33.0813 49.7565 34.5911 48.7883 35.8418 50.047C35.8418 50.047 37.968 51.7017 35.9132 53.6821C33.8585 55.6538 33.5726 55.8122 33.5726 55.8122Z" fill="white"/><path fill-rule="evenodd" clip-rule="evenodd" d="M67.9582 17.0403L64.7153 13.8277L78.8573 0L83.4849 4.60336L78.3927 14.479L88.7825 9.85804L93.2315 14.2854L79.0895 28.1042L75.6769 24.7155L83.1454 17.4188L72.9253 21.9869L70.817 19.8833L75.5697 9.83164L67.9582 17.0403Z" fill="black"/><path fill-rule="evenodd" clip-rule="evenodd" d="M92.508 41.4304L82.7078 31.6956L96.8497 17.8767L106.677 27.6467L103.827 30.4369L97.6627 24.3196L95.3578 26.5641L100.218 31.3963L97.2428 34.3009L92.4097 29.5039L89.3276 32.5229L95.4293 38.5874L92.508 41.4304Z" fill="black"/><path fill-rule="evenodd" clip-rule="evenodd" d="M95.6884 44.59L99.3333 48.2076L107.061 40.6556L104.283 53.119L108.017 56.8246C108.017 56.8246 110.956 47.9083 111.045 47.5387C111.045 47.5387 114.235 49.2726 117.728 46.3064C117.728 46.3064 121.078 43.0849 118.451 39.3266L109.866 30.7976L95.6884 44.59Z" fill="black"/><path fill-rule="evenodd" clip-rule="evenodd" d="M124.848 45.6814L128.484 49.3077L117.79 59.7643L123.776 65.7055L120.327 69.0678L110.697 59.5002L124.848 45.6814Z" fill="black"/><path fill-rule="evenodd" clip-rule="evenodd" d="M122.873 71.6028L137.015 57.7839L140.58 61.3134L126.438 75.1323L122.873 71.6028Z" fill="black"/><path fill-rule="evenodd" clip-rule="evenodd" d="M132.879 81.54L129.556 78.2393L143.698 64.4204L148.531 69.2174L144.404 83.5644L153.766 74.4105L157 77.6319L142.858 91.4508L138.641 87.2611L142.277 72.1924L132.879 81.54Z" fill="black"/><path fill-rule="evenodd" clip-rule="evenodd" d="M107.329 40.4093C107.329 40.4093 110.331 37.4783 110.715 37.0999C110.715 37.0999 113.029 39.3971 113.315 39.6876C113.6 39.978 115.432 41.3247 113.207 43.3755C113.207 43.3755 111.403 44.5726 109.813 42.9883L107.329 40.4093Z" fill="white"/></svg>