<svg width="129" height="90" viewBox="0 0 129 90" fill="none" xmlns="http://www.w3.org/2000/svg">
<g clip-path="url(#clip0_3_132)">
<path fill-rule="evenodd" clip-rule="evenodd" d="M108.542 14.3268C99.4612 9.18287 89.4691 5.36336 78.3183 3.23409C65.7827 0.841405 54.3257 0.680435 42.0161 3.73165C30.7923 6.51214 17.0979 11.6999 17.1271 19.9829C17.1708 32.2097 43.2842 39.0804 62.6852 39.2634C49.7342 34.6097 41.6225 29.6341 39.0644 24.2853C37.7962 21.6365 37.9347 19.6316 38.9113 17.9707C43.2988 10.5073 57.2264 8.40726 64.7113 8.08531C77.225 7.55848 92.2896 10.1999 108.542 14.3268ZM20.7784 44.817C29.8595 49.9609 39.8515 53.7804 51.0023 55.9097C63.5379 58.3024 74.9949 58.4634 87.3045 55.4121C98.5283 52.6317 112.223 47.4438 112.186 39.1609C112.143 26.9341 86.0291 20.0634 66.6281 19.8804C79.5791 24.5341 87.6981 29.5097 90.2489 34.8585C91.5171 37.5073 91.3786 39.5121 90.402 41.1731C86.0145 48.6365 72.0869 50.7365 64.602 51.0585C52.0956 51.5926 37.031 48.9438 20.7784 44.817ZM47.4457 20.978C52.0883 33.3146 67.4152 38.7438 81.8676 38.1804C78.8867 26.2463 58.05 20.2756 47.4457 20.978ZM86.3717 87.6438V89.2024H75.7237C75.8549 88.339 75.9205 87.3219 75.9569 86.4512V77.0853C75.9205 76.1853 75.8257 75.1755 75.6945 74.3048H85.8834V75.7097C84.6225 75.5926 83.6823 75.5341 82.3923 75.5341H78.7045V80.7073H82.3923C83.5584 80.7073 84.2362 80.7073 85.8834 80.5609V82.1121C84.3966 81.9951 83.6532 81.9951 82.3923 81.9951H78.7045V87.9438H82.1664C84.0103 87.9438 85.3003 87.8195 86.3717 87.6438ZM109.3 87.9438H105.809V81.9951H109.526C110.787 81.9951 111.501 81.9951 113.017 82.1121V80.5609C111.37 80.7073 110.692 80.7073 109.526 80.7073H105.809V75.5341H109.526C110.823 75.5341 111.727 75.5926 113.017 75.7097V74.3048H102.836C102.967 75.1755 103.061 76.1853 103.061 77.0853V86.4512C103.061 87.3219 102.996 88.339 102.836 89.2024H113.513V87.6438C112.412 87.8195 111.115 87.9438 109.3 87.9438ZM86.43 74.3048C86.7506 74.8463 87.5305 76.3975 87.822 77.0853L92.9018 89.2024H95.6859L100.503 76.939C100.729 76.339 101.502 74.817 101.735 74.3048H99.4685C99.3737 75.0804 98.8854 76.4853 98.6595 77.0853L94.8405 86.6853L90.8903 77.0853C90.5988 76.3682 90.1105 75.0804 89.9501 74.3048H86.43ZM115.16 74.3048C115.291 75.1755 115.386 76.2219 115.386 77.1146V86.4731C115.386 87.4902 115.32 88.3316 115.16 89.1951H116.909C116.807 88.3316 116.778 87.2853 116.778 86.4439V77.3195L126.42 89.1951H128.293V77.078C128.293 76.178 128.359 75.1682 128.453 74.2975H126.609C126.741 75.1682 126.901 76.178 126.901 77.078V85.3316L118.039 74.2975H115.16V74.3048ZM74.0401 77.4438C72.6845 74.3634 69.9296 73.7341 67.6339 73.7634C64.2667 73.7926 61.7815 75.4682 61.8106 78.1902C61.8398 80.1658 63.6837 81.8999 65.5932 82.3463C67.3423 82.7634 68.8947 83.0926 70.09 83.3926C71.3217 83.6634 72.1598 84.2926 72.1962 85.4268C72.2618 87.3731 70.4544 88.5365 67.991 88.4195C64.8862 88.2438 63.5306 85.8438 63.0423 84.0219L61.009 85.2219C61.6576 86.7439 63.3047 89.8536 68.1222 89.8536C72.0359 89.8536 74.3972 87.8487 74.4264 84.9512C74.4264 82.4999 72.8084 81.2414 70.4179 80.6414C69.055 80.3121 67.6339 80.0414 66.4678 79.7414C65.3672 79.4707 64.0408 78.7829 63.9096 77.8243C63.6473 76.0024 65.1413 75.1024 66.9196 75.1024C70.2503 75.1024 71.3217 76.9609 71.9047 78.6L74.0401 77.4438ZM22.2142 89.2536C22.3454 88.3829 22.411 87.3731 22.411 86.5024V77.1073C22.411 76.2439 22.3162 75.2268 22.1851 74.356H25.421C25.2898 75.2268 25.1951 76.2439 25.1951 77.1073V86.5024C25.1951 87.3731 25.2606 88.3829 25.421 89.2536H22.2142ZM15.1301 74.3634L9.98471 85.6682L4.90488 74.3634H1.47217C1.63251 75.2341 1.6981 76.2512 1.73454 77.1146V86.5097C1.73454 87.3804 1.70539 88.3316 1.53776 89.2609H3.22132C3.09014 88.3316 3.02454 87.3804 3.02454 86.5097V76.7853C3.02454 76.7853 8.49064 88.8073 8.49064 88.8365H10.2398L15.8006 76.6609V86.5024C15.8006 87.3731 15.7642 88.3829 15.6039 89.2536H18.8106C18.6503 88.3829 18.6139 87.3731 18.6139 86.5024V77.1073C18.6139 76.2439 18.7086 75.2268 18.8398 74.356H15.1301V74.3634ZM39.2611 89.2536V87.6365C39.2611 87.6365 37.4828 87.9658 35.5078 87.9658H32.0459V77.1073C32.0823 76.2439 32.1406 75.2268 32.3083 74.356H29.0432C29.1744 75.2268 29.2691 76.2439 29.2691 77.1073V86.5024C29.2691 87.3731 29.24 88.3829 29.0796 89.2536H39.2611ZM40.3981 89.2536C40.5584 88.3829 40.5949 87.3731 40.624 86.5024V77.1073C40.5949 76.2439 40.4928 75.2268 40.3689 74.356C40.3689 74.356 45.5144 74.3853 46.2578 74.4438C50.1059 74.6194 54.3476 76.6243 54.3476 81.7756C54.3476 87.0365 50.1059 88.9829 46.4254 89.1658C44.3701 89.2536 40.3981 89.2536 40.3981 89.2536ZM51.3595 81.7463C51.3595 75.6146 45.2156 75.6146 44.4722 75.5853C43.7288 75.556 43.2113 75.5853 43.2113 75.5853V88.0609C43.2113 88.0609 44.6981 88.0609 44.9896 88.0609C45.6018 88.0317 51.3595 87.8487 51.3595 81.7463Z" fill="#293F7C"/>
<path fill-rule="evenodd" clip-rule="evenodd" d="M107.427 13.2511C98.3461 8.10721 88.354 4.28769 77.2032 2.15843C69.2664 0.643793 61.7669 0.0218436 54.2091 0.548673C45.7913 1.12672 37.1913 3.1316 29.3639 6.29989C22.0247 9.27062 15.9901 13.4121 16.012 18.9072C16.0557 31.134 42.1691 38.0048 61.5701 38.1877C48.6191 33.534 40.5074 28.5584 37.9493 23.2096C36.6812 20.5609 36.8196 18.556 37.7962 16.895C42.1837 9.4316 56.1113 7.3316 63.5962 7.00965C76.11 6.48282 91.1746 9.12428 107.427 13.2511ZM19.6634 43.7414C28.7444 48.8853 38.7364 52.7048 49.8873 54.834C62.4229 57.2267 73.8798 57.3877 86.1895 54.3365C97.4132 51.556 111.108 46.3682 111.071 38.0852C111.027 25.8584 84.914 18.9877 65.513 18.8048C78.464 23.4584 86.583 28.434 89.1339 33.7828C90.402 36.4316 90.2635 38.4365 89.2869 40.0974C84.8995 47.5609 70.9791 49.6609 63.4869 49.9828C50.9805 50.517 35.9159 47.8755 19.6634 43.7414ZM46.3379 19.9023C50.9805 32.2389 66.3074 37.6682 80.7598 37.1048C77.779 25.1706 56.9422 19.1999 46.3379 19.9023ZM85.2566 86.5682V88.1194H74.6086C74.7398 87.256 74.8054 86.2389 74.8345 85.3682V76.0023C74.7981 75.1023 74.7034 74.0926 74.5722 73.2218H84.761V74.634C83.5001 74.517 82.56 74.4584 81.27 74.4584H77.5822V79.6316H81.27C82.4361 79.6316 83.1139 79.6316 84.761 79.4853V81.0365C83.2742 80.9194 82.5308 80.9194 81.27 80.9194H77.5822V86.8682H81.044C82.8952 86.8682 84.1925 86.7438 85.2566 86.5682ZM108.192 86.8682H104.701V80.9194H108.418C109.679 80.9194 110.393 80.9194 111.909 81.0365V79.4853C110.262 79.6316 109.584 79.6316 108.418 79.6316H104.701V74.4584H108.418C109.716 74.4584 110.619 74.517 111.909 74.634V73.2291H101.72C101.852 74.0999 101.946 75.1096 101.946 76.0097V85.3755C101.946 86.2462 101.881 87.2633 101.72 88.1267H112.398V86.5755C111.297 86.7438 110.007 86.8682 108.192 86.8682ZM85.3222 73.2291C85.6429 73.7706 86.4227 75.3218 86.7142 76.0097L91.794 88.1267H94.5781L99.3956 75.8633C99.6215 75.2633 100.401 73.7413 100.627 73.2365H98.3607C98.2659 74.0121 97.7776 75.417 97.5517 76.017L93.7327 85.6096L89.7825 76.0097C89.491 75.2926 89.0027 74.0048 88.8423 73.2291H85.3222ZM114.045 73.2291C114.176 74.0999 114.271 75.1462 114.271 76.0389V85.3974C114.271 86.4145 114.205 87.256 114.045 88.1194H115.794C115.692 87.256 115.663 86.2097 115.663 85.3682V76.2438L125.305 88.1194H127.178V76.0023C127.178 75.1023 127.244 74.0926 127.338 73.2218H125.494C125.626 74.0926 125.786 75.1023 125.786 76.0023V84.256L116.924 73.2218H114.045V73.2291ZM72.9324 76.3682C71.5768 73.2877 68.8218 72.6584 66.5261 72.6877C63.159 72.717 60.6737 74.3926 60.7029 77.1145C60.732 79.0901 62.5759 80.8243 64.4854 81.2706C66.2346 81.6877 67.7869 82.017 68.9822 82.317C70.2139 82.5877 71.052 83.217 71.0884 84.3511C71.154 86.2974 69.3466 87.4609 66.8832 87.3438C63.7785 87.1682 62.4229 84.7682 61.9345 82.9462L59.9012 84.1462C60.5498 85.6682 62.1969 88.7853 67.0144 88.7853C70.9281 88.7853 73.2895 86.7804 73.3186 83.8828C73.3186 81.4316 71.7007 80.1731 69.3102 79.5731C67.9473 79.2438 66.5261 78.9731 65.36 78.673C64.2595 78.4023 62.933 77.7145 62.8018 76.756C62.5395 74.934 64.0335 74.034 65.8118 74.034C69.1425 74.034 70.2139 75.8926 70.7896 77.5316L72.9324 76.3682ZM21.0991 88.1852C21.2303 87.3145 21.2959 86.2975 21.2959 85.434V76.0389C21.2959 75.1755 21.2012 74.1584 21.07 73.2877H24.3059C24.1747 74.1584 24.08 75.1755 24.08 76.0389V85.434C24.08 86.2975 24.1456 87.3145 24.3059 88.1852H21.0991ZM14.0224 73.2877L8.87692 84.5926L3.79709 73.2877H0.36438C0.524719 74.1584 0.590313 75.1755 0.626753 76.0389V85.434C0.626753 86.2975 0.597598 87.256 0.42997 88.1852H2.11353C1.98235 87.256 1.91675 86.2975 1.91675 85.434V75.7096C1.91675 75.7096 7.38286 87.7316 7.38286 87.7609H9.13201L14.6929 75.5853V85.4267C14.6929 86.2901 14.6564 87.3072 14.4961 88.1779H17.7029C17.5425 87.3072 17.5061 86.2901 17.5061 85.4267V76.0316C17.5061 75.1682 17.6008 74.1511 17.732 73.2804H14.0224V73.2877ZM38.1534 88.1852V86.5682C38.1534 86.5682 36.3751 86.8975 34.4 86.8975H30.9381V76.0389C30.9745 75.1755 31.0329 74.1584 31.2005 73.2877H27.9354C28.0666 74.1584 28.1613 75.1755 28.1613 76.0389V85.434C28.1613 86.2975 28.1322 87.3145 27.9718 88.1852H38.1534ZM39.283 88.1852C39.4434 87.3145 39.4798 86.2975 39.509 85.434V76.0389C39.4798 75.1755 39.3778 74.1584 39.2539 73.2877C39.2539 73.2877 44.3993 73.317 45.1427 73.3755C48.9908 73.5511 53.2325 75.556 53.2325 80.6999C53.2325 85.9609 48.9908 87.9072 45.3103 88.0901C43.2623 88.1853 39.283 88.1852 39.283 88.1852ZM50.2517 80.6779C50.2517 74.5462 44.1078 74.5462 43.3644 74.517C42.621 74.4877 42.1035 74.517 42.1035 74.517V86.9926C42.1035 86.9926 43.5903 86.9926 43.8818 86.9926C44.494 86.956 50.2517 86.7804 50.2517 80.6779Z" fill="#A1DAF8"/>
</g>
<defs>
<clipPath id="clip0_3_132">
<rect width="129" height="90" fill="white"/>
</clipPath>
</defs>
</svg>
