<svg width="144" height="114" viewBox="0 0 144 114" fill="none" xmlns="http://www.w3.org/2000/svg">
<g clip-path="url(#clip0_3_138)">
<path fill-rule="evenodd" clip-rule="evenodd" d="M126.921 113.755V112.338H15.1183V113.755H126.921Z" fill="black"/>
<path fill-rule="evenodd" clip-rule="evenodd" d="M11.0752 86.0447H0.211304V87.7272H1.58219C1.93669 87.7272 2.48415 88.28 2.48415 88.6293V92.6998H9.15461V87.725H11.0752V86.0447Z" fill="black"/>
<path fill-rule="evenodd" clip-rule="evenodd" d="M43.2519 108.194V101.53H39.6485V104.385C39.6485 105.364 39.1751 106.514 38.3158 106.514H34.3938C34.0416 106.514 33.5143 106.03 33.5143 105.681V98.2228C33.5143 97.8735 33.7835 97.6038 34.138 97.6038H35.2509C35.6054 97.6038 36.1461 98.1609 36.1461 98.5103V99.9253H39.4668V93.2371H36.2224V94.6211C36.2224 94.9705 35.6346 95.5918 35.2801 95.5918H34.138C33.7835 95.5918 33.5143 95.1938 33.5143 94.8444V88.4569C33.5143 88.1075 34.0416 87.7273 34.3938 87.7273H38.2126C38.7084 87.7273 39.1414 88.1717 39.1414 88.6603V91.7203H42.4913V86.0425H24.562V87.725H25.9351C26.2896 87.725 26.8371 88.2778 26.8371 88.6271V105.727C26.8371 106.076 26.3098 106.51 25.9553 106.51H24.5844V108.19H43.2519V108.194Z" fill="black"/>
<path fill-rule="evenodd" clip-rule="evenodd" d="M49.9178 94.5393L57.3601 108.194H63.9274V88.5696C63.9274 88.2203 64.4546 87.7294 64.8091 87.7294H66.1823V86.0469H58.8163V87.7294H60.1939C60.5484 87.7294 61.0756 88.2181 61.0756 88.5674V100.096L53.0837 86.0469H44.791V87.7294H46.1641C46.5186 87.7294 47.0661 88.2579 47.0661 88.605V105.705C47.0661 106.054 46.5388 106.512 46.1843 106.512H44.8135V108.192H52.1795V106.512H50.8018C50.4473 106.512 49.9201 106.059 49.9201 105.707V94.5393H49.9178Z" fill="black"/>
<path fill-rule="evenodd" clip-rule="evenodd" d="M71.345 94.0618L67.6833 105.782C67.5487 106.143 67.3333 106.512 66.9788 106.512H65.5496V108.192H72.4085L72.3973 106.512H71.0241C70.6696 106.512 70.2994 106.134 70.4004 105.784L71.8543 100.562C71.888 100.425 71.9777 100.306 72.1191 100.306H74.9057V98.2671L72.8999 98.2693C72.7563 98.2693 72.588 98.1322 72.6329 97.9907L73.7592 94.0596H71.345V94.0618Z" fill="black"/>
<path fill-rule="evenodd" clip-rule="evenodd" d="M74.9057 100.308H77.4882C77.6318 100.308 77.7574 100.429 77.7866 100.564L79.2405 105.787C79.3437 106.136 78.9712 106.514 78.6167 106.514H77.2458L77.2324 108.194H88.4822V106.514H87.053C86.6985 106.514 86.4831 106.143 86.3485 105.784L80.4588 86.0469H70.5485V87.7294H71.6703C72.7046 87.7339 73.0995 88.4723 72.8953 89.202L71.345 94.0639H73.7592L74.8518 90.3384L77.0686 97.9929C77.1157 98.1322 76.916 98.2715 76.7724 98.2715H74.9057V100.308Z" fill="black"/>
<path fill-rule="evenodd" clip-rule="evenodd" d="M105.377 103.036V88.6382C105.377 88.2888 105.92 87.7272 106.277 87.7272H107.641V86.0447H100.802V87.7272H102.173C102.528 87.7272 103.071 88.2999 103.071 88.6492V103.111C103.026 107.08 95.7831 107.496 95.7382 102.95V88.6205C95.7382 88.2711 96.2812 87.7272 96.6357 87.7272H98.0021V86.0447H86.8083V87.7272H88.1792C88.5337 87.7272 89.0745 88.28 89.0745 88.6293V103.1C89.0745 110.237 105.377 110.615 105.377 103.036Z" fill="black"/>
<path fill-rule="evenodd" clip-rule="evenodd" d="M118.177 88.6116C118.177 88.2623 118.727 87.7272 119.081 87.7272H120.457V86.0447H109.227V87.7272H110.6C110.955 87.7272 111.502 88.2557 111.502 88.6028V105.703C111.502 106.052 110.973 106.51 110.621 106.51H109.505V108.19H126.91V101.5H123.309V104.354C123.309 105.333 122.835 106.51 121.976 106.51H119.05C118.696 106.51 118.168 105.999 118.168 105.65L118.177 88.6116Z" fill="black"/>
<path fill-rule="evenodd" clip-rule="evenodd" d="M133.905 108.195H139.508V106.514H138.137C137.783 106.514 137.242 106.021 137.242 105.674V88.1077C137.242 87.8977 137.408 87.7363 137.623 87.7363C139.257 87.7982 139.957 88.3222 139.957 90.5222V92.5717H143.215V86.0493H133.908H124.601V92.5717H127.859V90.5222C127.859 88.3222 128.561 87.7982 130.194 87.7363C130.408 87.7363 130.576 87.8999 130.576 88.1077L130.578 105.674C130.578 106.023 130.033 106.514 129.681 106.514H128.31V108.195H133.905Z" fill="black"/>
<path fill-rule="evenodd" clip-rule="evenodd" d="M9.85466 97.4556C10.1284 97.4556 10.5031 97.7275 10.6624 98.0106L10.6848 98.0327L15.2283 108.194H23.0116V106.514H22.4664C21.9975 106.514 21.7619 105.935 21.4792 105.453L16.7585 97.2522C19.6394 97.2522 21.0865 95.0147 21.1202 92.0365C21.0843 89.0295 19.7246 86.0469 16.1684 86.0469H11.0797V87.7294H11.69C14.8222 87.7294 14.867 95.7576 11.69 95.7576H9.15912V92.7042H2.48418V105.74C2.48418 106.087 1.95915 106.514 1.60465 106.514H0.233765V108.194H11.4163V106.514H10.0364C9.6819 106.514 9.15463 106.061 9.15463 105.709L9.16137 97.4578H9.92646L9.85466 97.4556Z" fill="black"/>
<path fill-rule="evenodd" clip-rule="evenodd" d="M72.1706 57.534L65.3229 69.2258C65.1007 69.6016 64.5264 69.281 64.6744 68.8897L70.3756 55.993L59.0204 36.6136L43.4604 36.6181C43.4806 36.8193 43.6197 37.0868 43.6489 37.1598L63.6199 71.251C63.7411 71.4301 63.9767 71.6778 64.284 71.68H79.0901C79.3885 71.6778 79.6286 71.4832 79.7071 71.3572L99.7005 37.2062C99.7634 37.1067 99.9024 36.8038 100.068 36.3992H84.5624L71.7196 58.299L72.1706 57.534Z" fill="black"/>
<path fill-rule="evenodd" clip-rule="evenodd" d="M82.3323 36.481H99.9115C100.181 36.481 100.403 36.2753 100.416 36.01C100.439 35.5745 100.338 35.0925 100.12 34.71L80.1065 0.592143C79.8799 0.222907 79.485 0.065926 79.0655 0.0836139H64.3806C63.97 0.072559 63.5235 0.245016 63.2812 0.58772L63.2587 0.623097L43.3506 34.7122C43.1105 35.1345 42.9647 35.6983 42.931 36.1803C42.913 36.4544 43.124 36.691 43.4022 36.7087H43.4358H61.143L71.2866 53.9345C71.4257 54.1711 71.7354 54.2529 71.9754 54.1158C72.0562 54.0694 72.1123 54.0141 72.1594 53.9345L82.2986 36.5517C82.3121 36.5252 82.321 36.5053 82.3323 36.481ZM81.3944 36.1029L71.7219 52.6875L61.9933 36.1648L71.7241 19.5558L81.3944 36.1029ZM61.0913 35.7138H44.0304C44.082 35.5258 44.1426 35.3711 44.2323 35.1986L64.1136 1.15594L64.2235 1.09404C64.2661 1.07414 64.3222 1.08077 64.3649 1.08077C64.4367 1.08298 79.1238 1.08077 79.153 1.07635C79.1889 1.07193 79.2203 1.08519 79.245 1.11173L99.2361 35.1986C99.2878 35.2959 99.3214 35.3799 99.3528 35.486H82.1976L72.1594 18.3132C72.0203 18.0767 71.7107 17.9927 71.4706 18.1319C71.3898 18.1762 71.3315 18.2336 71.2866 18.3132L61.0913 35.7138Z" fill="black"/>
<path fill-rule="evenodd" clip-rule="evenodd" d="M58.8723 35.7758H61.5737L71.7219 18.561L81.695 35.6365L84.4323 35.6387L73.0344 16.1864L78.8029 3.27199C78.9533 2.92486 78.3407 2.64407 78.1388 2.98677L58.8723 35.7758Z" fill="black"/>
<path fill-rule="evenodd" clip-rule="evenodd" d="M63.2497 71.4213C63.4764 71.8126 63.8421 72.0492 64.2953 72.0979L64.3222 72.1001C64.3267 72.1001 79.1709 72.1001 79.1709 72.1001C79.568 72.089 79.9809 71.8834 80.1985 71.5495L100.23 37.3344C100.311 37.1575 100.358 36.5606 100.383 36.2732L99.3775 36.1869L99.3259 36.7817L99.3034 36.932L79.3549 71.0056C79.301 71.0697 79.2315 71.1029 79.1485 71.1073H64.385C64.2796 71.0985 64.1764 71.0123 64.1248 70.9282L44.1695 36.8635C44.1314 36.7883 44.0326 36.5274 44.0259 36.481C43.9922 36.209 43.741 36.0145 43.465 36.0476C43.189 36.0808 42.9916 36.3284 43.0252 36.6004C43.0387 36.7087 43.0701 36.8392 43.1105 36.9409L43.2631 37.3035L63.2497 71.4213Z" fill="black"/>
</g>
<defs>
<clipPath id="clip0_3_138">
<rect width="144" height="114" fill="white"/>
</clipPath>
</defs>
</svg>
