<svg width="172" height="26" viewBox="0 0 172 26" fill="none" xmlns="http://www.w3.org/2000/svg"><path fill-rule="evenodd" clip-rule="evenodd" d="M84.7904 1.74487C90.3997 1.74487 94.0293 4.59841 93.8093 8.3967H70.622C73.2717 4.58877 79.101 1.74487 84.7904 1.74487ZM93.7293 8.97513C93.6493 9.40894 93.4994 9.91988 93.3494 10.3633L90.5497 17.6707H77.5912L79.7109 12.0408H82.8905L83.5005 10.3633L84.0304 8.97513H93.7293ZM90.3197 18.2492L87.82 24.901H77.9711L80.5508 18.2492H90.3197ZM79.411 8.97513C78.3511 11.9733 77.2912 14.8172 76.1513 17.6707H66.7524L69.5521 10.3633C69.7021 9.92952 69.932 9.40894 70.232 8.97513H79.411ZM76.0013 18.2492C75.0915 20.4375 74.2615 22.703 73.4216 24.901H64.0227L66.5224 18.2492H76.0013Z" fill="black"/><path fill-rule="evenodd" clip-rule="evenodd" d="M27.2769 2.32324H47.3547L45.0049 8.46413H39.9255H29.9966H25.0672L27.2769 2.32324ZM39.7055 8.97507L36.3759 17.6706H26.527L29.8567 8.97507H39.7055ZM36.1459 18.2491L33.6462 24.8238H23.7974L26.2971 18.2491H36.1459Z" fill="black"/><path fill-rule="evenodd" clip-rule="evenodd" d="M159.572 1.74487C166.091 1.74487 170.631 4.44417 171.69 8.46419H142.214C146.383 4.44417 153.053 1.74487 159.572 1.74487ZM171.85 8.97513C172.15 10.3633 172 11.8287 171.391 13.3615C170.781 14.8943 169.871 16.3596 168.591 17.6707H155.252C157.902 17.0826 160.402 15.4053 161.162 13.3615C161.922 11.2406 160.702 9.48607 158.282 8.97513H171.85ZM168.061 18.2492C163.971 22.2692 157.222 25.0456 150.633 25.0456C144.114 25.0456 139.494 22.2692 138.434 18.2492H168.061ZM138.284 17.6707C138.134 16.35 138.284 14.8943 138.814 13.3615C139.424 11.8287 140.404 10.3633 141.694 8.97513H155.182C152.383 9.48607 149.803 11.2406 148.973 13.3615C148.213 15.4053 149.353 17.0826 151.623 17.6707H138.284Z" fill="black"/><path fill-rule="evenodd" clip-rule="evenodd" d="M120.476 24.8238H110.927L113.427 18.2491H123.046L121.456 22.3366L120.476 24.8238ZM113.657 17.6706L116.987 8.97507H126.615L125.856 10.7971C126.465 10.3537 127.065 9.91982 127.595 9.48601C127.825 9.26428 127.975 9.11968 128.125 8.97507H137.974C137.974 8.97507 137.974 9.05221 137.894 9.05221C137.284 9.70775 136.754 10.5175 136.004 11.0285L134.265 12.4167L134.185 12.5613C136.604 12.5613 137.744 14.8268 136.834 17.6803H127.135C127.215 16.5138 126.375 15.6366 125.016 15.6366C124.716 15.6366 124.336 15.7137 124.026 15.7137L123.266 17.6899H113.657V17.6706ZM117.217 8.46413L119.566 2.32324H129.115L126.765 8.46413H117.217ZM128.655 8.46413C128.955 8.0978 129.185 7.80859 129.485 7.44226C130.395 6.48787 131.225 5.46601 132.065 4.44413L133.885 2.32324H143.733C142.904 3.27764 142.144 4.2995 141.314 5.17677C140.404 6.27577 139.494 7.36514 138.514 8.46413H128.655ZM136.684 18.2491L134.105 24.8238H124.556L127.055 18.2491H136.684Z" fill="black"/><path fill-rule="evenodd" clip-rule="evenodd" d="M104.868 2.32324H116.767L114.417 8.46413H95.4792C95.4792 8.38701 95.4792 8.38702 95.4792 8.38702C96.759 5.03219 100.929 2.32324 104.868 2.32324ZM105.618 8.97507C105.538 9.1968 105.468 9.40891 105.388 9.63064L105.468 9.5535C105.618 9.91983 105.698 10.2862 105.848 10.6525C105.848 10.7296 105.848 10.7296 105.848 10.7971L107.058 11.6744L107.138 11.7515H107.218L109.798 13.506C111.237 14.3062 111.997 15.8486 111.767 17.6706H101.458V17.5936L100.999 16.4946L99.7887 15.6173L99.6387 15.4727C99.6387 15.4727 99.7187 15.4727 99.7187 15.3955L97.219 13.7181C96.919 13.5735 96.689 13.3518 96.4591 13.2072L96.2291 12.9855C95.2392 12.0407 94.8692 10.5754 95.2392 8.96545H105.618V8.97507ZM111.607 18.2491C111.527 18.3937 111.457 18.6154 111.457 18.76C110.167 22.1149 105.928 24.8238 101.988 24.8238H89.0299L91.5296 18.2491H111.607Z" fill="black"/><path fill-rule="evenodd" clip-rule="evenodd" d="M55.3137 19.7143L53.3439 24.8238H56.8335H61.0731H62.6629L64.6326 19.7143C64.7826 19.2034 64.9326 18.6925 65.0926 18.2491H55.6237C55.6137 18.6925 55.4637 19.2034 55.3137 19.7143ZM65.1626 17.6706C65.6125 15.4051 65.0126 13.7277 63.6427 13.506C65.9125 12.2624 67.5823 10.7296 68.3422 8.97502H58.7233C59.2533 9.19675 59.4832 9.63057 59.2533 10.2186C58.9533 10.9513 58.0434 11.5297 57.2035 11.5297L55.3137 11.6068L53.1939 17.2368L55.6137 17.3139C55.6137 17.4585 55.6137 17.5356 55.6137 17.6802H65.1626V17.6706ZM68.4922 8.46409C69.6321 4.74291 65.7625 1.81226 59.7832 1.81226C53.7239 1.81226 47.6646 4.73327 45.9948 8.46409H68.4922ZM45.7648 8.97502L42.4352 17.6706H51.6841L55.0137 8.97502H45.7648ZM42.2052 18.2491L39.6255 24.8238H48.8744L51.4541 18.2491H42.2052Z" fill="black"/><path fill-rule="evenodd" clip-rule="evenodd" d="M5.52937 1.01225C2.11976 4.07788 0 8.60884 0 13.5736C0 18.4709 1.96979 22.8476 5.22941 25.9229L9.01899 21.6908C9.7789 23.0019 10.7588 24.2455 11.8187 25.3445L22.8774 12.9277L11.8887 0C10.5988 1.31109 9.45893 2.85356 8.62902 4.59846L16.2081 13.5832L9.00898 21.6908C7.48915 19.059 6.65924 15.9933 6.65924 12.706C6.65924 9.78494 7.33918 7.00855 8.54904 4.59846L5.52937 1.01225Z" fill="black"/></svg>